<svg width="33" height="28" viewBox="0 0 33 28" fill="none" xmlns="http://www.w3.org/2000/svg">
<rect width="33" height="28" fill="#0667C0"/>
<path d="M2 11.1081H8.7129L11.7191 4.55294L16.9356 14L21.6652 3L24.5279 9.29976H31" stroke="#FBFBFB" stroke-linecap="round"/>
<path d="M9.59202 17.8332L7.1925 23.7334H6.40773L4.00822 17.8332H4.70671C4.7834 17.8332 4.84503 17.8524 4.8916 17.8907C4.94091 17.9291 4.97788 17.9784 5.00254 18.0387L6.59674 22.0488C6.63508 22.1474 6.67206 22.2556 6.70767 22.3734C6.74602 22.4912 6.78026 22.6144 6.81039 22.7432C6.83778 22.6144 6.86791 22.4912 6.90078 22.3734C6.93365 22.2556 6.96926 22.1474 7.00761 22.0488L8.5977 18.0387C8.61687 17.9839 8.65111 17.9359 8.70042 17.8949C8.75246 17.8538 8.81546 17.8332 8.88942 17.8332H9.59202ZM11.9475 19.5589V23.7334H11.1463V19.5589H11.9475ZM12.0995 18.2688C12.0995 18.3427 12.0845 18.4139 12.0543 18.4824C12.0242 18.5481 11.9831 18.607 11.9311 18.6591C11.8818 18.7084 11.8229 18.7481 11.7544 18.7782C11.6859 18.8056 11.6147 18.8193 11.5407 18.8193C11.4668 18.8193 11.3969 18.8056 11.3312 18.7782C11.2654 18.7481 11.2065 18.7084 11.1545 18.6591C11.1052 18.607 11.0655 18.5481 11.0353 18.4824C11.008 18.4139 10.9943 18.3427 10.9943 18.2688C10.9943 18.1921 11.008 18.1208 11.0353 18.0551C11.0655 17.9866 11.1052 17.9277 11.1545 17.8784C11.2065 17.8264 11.2654 17.7867 11.3312 17.7593C11.3969 17.7291 11.4668 17.7141 11.5407 17.7141C11.6147 17.7141 11.6859 17.7291 11.7544 17.7593C11.8229 17.7867 11.8818 17.8264 11.9311 17.8784C11.9831 17.9277 12.0242 17.9866 12.0543 18.0551C12.0845 18.1208 12.0995 18.1921 12.0995 18.2688ZM15.3591 23.7991C15.0222 23.7991 14.762 23.7046 14.5784 23.5156C14.3977 23.3266 14.3073 23.0568 14.3073 22.7062V20.2081H13.8224C13.7759 20.2081 13.7362 20.1944 13.7033 20.167C13.6732 20.1369 13.6581 20.093 13.6581 20.0355V19.7109L14.336 19.6164L14.5168 18.3715C14.5278 18.3249 14.5483 18.2893 14.5784 18.2646C14.6113 18.2372 14.6524 18.2236 14.7017 18.2236H15.1085V19.6246H16.2918V20.2081H15.1085V22.6528C15.1085 22.8171 15.1482 22.9404 15.2276 23.0226C15.3098 23.102 15.4139 23.1417 15.5399 23.1417C15.6139 23.1417 15.6769 23.1322 15.7289 23.113C15.7837 23.0938 15.8302 23.0733 15.8686 23.0513C15.9069 23.0267 15.9398 23.0048 15.9672 22.9856C15.9946 22.9664 16.0193 22.9568 16.0412 22.9568C16.0686 22.9568 16.0891 22.9637 16.1028 22.9774C16.1192 22.9883 16.1357 23.0075 16.1521 23.0349L16.3904 23.4211C16.2589 23.5417 16.1028 23.6348 15.922 23.7005C15.7412 23.7663 15.5536 23.7991 15.3591 23.7991ZM20.2182 21.8803C19.8922 21.8913 19.6155 21.9173 19.3882 21.9584C19.1608 21.9968 18.976 22.0488 18.8335 22.1145C18.6911 22.1803 18.5884 22.2584 18.5254 22.3487C18.4624 22.4364 18.4309 22.535 18.4309 22.6446C18.4309 22.7487 18.4473 22.8391 18.4802 22.9158C18.5158 22.9897 18.5623 23.0513 18.6199 23.1006C18.6801 23.1472 18.75 23.1815 18.8294 23.2034C18.9088 23.2253 18.9951 23.2362 19.0883 23.2362C19.2115 23.2362 19.3238 23.2239 19.4252 23.1993C19.5293 23.1746 19.6265 23.1404 19.7169 23.0965C19.8073 23.05 19.8936 22.9938 19.9758 22.9281C20.0579 22.8623 20.1387 22.787 20.2182 22.7021V21.8803ZM17.868 20.1423C18.1008 19.9205 18.3528 19.7548 18.624 19.6452C18.8979 19.5356 19.1978 19.4808 19.5238 19.4808C19.7621 19.4808 19.973 19.5206 20.1565 19.6C20.3401 19.6767 20.4948 19.7849 20.6208 19.9246C20.7468 20.0643 20.8413 20.2314 20.9043 20.4258C20.9701 20.6203 21.0029 20.8354 21.0029 21.0709V23.7334H20.6455C20.566 23.7334 20.5058 23.7211 20.4647 23.6964C20.4236 23.669 20.3907 23.6197 20.3661 23.5485L20.2798 23.1828C20.173 23.2814 20.0675 23.3691 19.9634 23.4458C19.8593 23.5197 19.7498 23.5841 19.6347 23.6389C19.5224 23.6909 19.4019 23.7307 19.2732 23.7581C19.1444 23.7854 19.002 23.7991 18.8458 23.7991C18.6815 23.7991 18.5267 23.7772 18.3816 23.7334C18.2391 23.6868 18.1145 23.617 18.0077 23.5239C17.9008 23.4307 17.8159 23.3143 17.7529 23.1746C17.6927 23.0349 17.6625 22.8719 17.6625 22.6857C17.6625 22.5213 17.7063 22.3638 17.794 22.2132C17.8844 22.0598 18.0296 21.9228 18.2295 21.8023C18.4322 21.6818 18.6952 21.5831 19.0184 21.5065C19.3444 21.4298 19.7443 21.3859 20.2182 21.375V21.0709C20.2182 20.7559 20.1511 20.5203 20.0168 20.3642C19.8826 20.2081 19.6854 20.13 19.4252 20.13C19.2499 20.13 19.102 20.1519 18.9814 20.1958C18.8636 20.2396 18.7609 20.2889 18.6733 20.3437C18.5884 20.3957 18.513 20.4437 18.4473 20.4875C18.3843 20.5313 18.3186 20.5532 18.2501 20.5532C18.1953 20.5532 18.1474 20.5382 18.1063 20.508C18.0679 20.4779 18.0364 20.4423 18.0118 20.4012L17.868 20.1423ZM23.8423 17.6689V23.7334H23.037V17.6689H23.8423ZM28.3928 20.2779C28.3709 20.3135 28.3476 20.3396 28.3229 20.356C28.2983 20.3697 28.2668 20.3765 28.2284 20.3765C28.1846 20.3765 28.1353 20.3615 28.0805 20.3313C28.0285 20.3012 27.9641 20.2683 27.8874 20.2327C27.8135 20.1971 27.7258 20.1643 27.6245 20.1341C27.5231 20.104 27.4026 20.0889 27.2629 20.0889C27.1478 20.0889 27.0424 20.104 26.9465 20.1341C26.8534 20.1615 26.7739 20.2012 26.7082 20.2533C26.6425 20.3026 26.5918 20.3628 26.5562 20.4341C26.5206 20.5025 26.5028 20.5765 26.5028 20.6559C26.5028 20.76 26.5329 20.8463 26.5932 20.9148C26.6562 20.9833 26.737 21.0422 26.8356 21.0915C26.9369 21.1408 27.0506 21.186 27.1766 21.2271C27.3053 21.2654 27.4355 21.3065 27.5669 21.3503C27.7012 21.3941 27.8313 21.4448 27.9573 21.5023C28.086 21.5571 28.1997 21.627 28.2983 21.7119C28.3996 21.7941 28.4805 21.894 28.5407 22.0118C28.6037 22.1296 28.6352 22.2734 28.6352 22.4432C28.6352 22.6377 28.5996 22.8185 28.5284 22.9856C28.4599 23.15 28.3572 23.2924 28.2202 23.4129C28.086 23.5334 27.9189 23.6279 27.719 23.6964C27.519 23.7649 27.2903 23.7991 27.0328 23.7991C26.7452 23.7991 26.4795 23.7512 26.2357 23.6553C25.9919 23.5595 25.7878 23.4376 25.6235 23.2897L25.8125 22.9815C25.8344 22.9431 25.8618 22.9144 25.8947 22.8952C25.9275 22.8733 25.9714 22.8623 26.0262 22.8623C26.0782 22.8623 26.1316 22.8815 26.1864 22.9199C26.2412 22.9582 26.3069 23.0007 26.3836 23.0472C26.4603 23.0911 26.5534 23.1322 26.663 23.1705C26.7726 23.2061 26.9095 23.2239 27.0739 23.2239C27.2108 23.2239 27.33 23.2075 27.4313 23.1746C27.5327 23.139 27.6162 23.0924 27.682 23.0349C27.7505 22.9746 27.8011 22.9062 27.834 22.8295C27.8669 22.7528 27.8833 22.672 27.8833 22.5871C27.8833 22.4775 27.8518 22.3871 27.7888 22.3159C27.7285 22.2419 27.6477 22.1789 27.5464 22.1269C27.4478 22.0748 27.3341 22.0296 27.2054 21.9913C27.0766 21.9529 26.9451 21.9118 26.8109 21.868C26.6767 21.8242 26.5452 21.7735 26.4165 21.716C26.2877 21.6585 26.1727 21.5859 26.0713 21.4982C25.9727 21.4106 25.8919 21.3038 25.8289 21.1778C25.7687 21.0517 25.7385 20.8984 25.7385 20.7176C25.7385 20.556 25.7714 20.4012 25.8371 20.2533C25.9056 20.1054 26.0029 19.9753 26.1289 19.8629C26.2576 19.7506 26.4151 19.6616 26.6014 19.5959C26.7904 19.5274 27.0054 19.4932 27.2465 19.4932C27.5231 19.4932 27.7724 19.537 27.9942 19.6246C28.2189 19.7123 28.4106 19.8328 28.5695 19.9862L28.3928 20.2779Z" fill="#FBFBFB"/>
</svg>
