<svg width="129" height="129" viewBox="0 0 129 129" fill="none" xmlns="http://www.w3.org/2000/svg">
<g clip-path="url(#clip0_1_1816)">
<path d="M55.209 45.6689V80.6689L82.709 63.1689L55.209 45.6689Z" fill="black"/>
</g>
<path d="M121.563 84.7409L110.924 79.1172L111.205 77.6071L120.093 76.4118C120.272 76.38 120.485 76.3625 120.729 76.3592C120.499 76.2567 120.307 76.1641 120.154 76.0814L112.296 71.7397L112.575 70.2374L124.525 68.8138L124.264 70.2138C124.237 70.3607 124.177 70.4771 124.085 70.563C123.999 70.65 123.892 70.698 123.766 70.707L115.793 71.5275C115.639 71.5421 115.472 71.5491 115.293 71.5484C115.113 71.5529 114.926 71.556 114.73 71.5576C114.912 71.6294 115.086 71.6998 115.252 71.7686C115.417 71.8428 115.569 71.9197 115.706 71.9994L122.79 75.9531C122.889 76.0041 122.969 76.0867 123.029 76.2009C123.088 76.3204 123.105 76.4509 123.078 76.5925L122.989 77.0723C122.962 77.2191 122.903 77.3329 122.812 77.4136C122.721 77.4944 122.614 77.545 122.49 77.5655L114.46 78.7006C114.154 78.7413 113.81 78.7643 113.43 78.7694C113.78 78.8996 114.095 79.0287 114.375 79.1567L121.518 82.7958C121.618 82.8415 121.698 82.9241 121.757 83.0436C121.816 83.1631 121.832 83.2937 121.806 83.4352L121.563 84.7409Z" fill="black"/>
<path d="M110.079 89.5535C110.341 88.9751 110.535 88.4698 110.659 88.0375C110.788 87.6076 110.857 87.24 110.865 86.9346C110.874 86.6293 110.826 86.3826 110.722 86.1947C110.624 86.0091 110.479 85.869 110.288 85.7745C110.106 85.6846 109.934 85.6353 109.772 85.6265C109.612 85.6248 109.464 85.6529 109.329 85.7108C109.195 85.7758 109.075 85.8681 108.968 85.9879C108.862 86.1076 108.768 86.2488 108.688 86.4113C108.581 86.6265 108.506 86.8331 108.462 87.0313C108.415 87.2342 108.391 87.4335 108.389 87.6291C108.392 87.8271 108.416 88.0261 108.46 88.2263C108.504 88.4264 108.565 88.6325 108.645 88.8444L110.079 89.5535ZM115.141 86.9512C115.327 87.549 115.399 88.1319 115.356 88.6998C115.311 89.2724 115.148 89.8432 114.867 90.4121C114.661 90.8281 114.41 91.1619 114.113 91.4137C113.82 91.6678 113.498 91.8446 113.145 91.944C112.793 92.0433 112.42 92.0641 112.026 92.0062C111.63 91.9532 111.226 91.825 110.815 91.6217L106.168 89.3242L106.476 88.7003C106.545 88.5616 106.618 88.4671 106.697 88.4166C106.78 88.3686 106.894 88.3537 107.04 88.3722L107.753 88.5371C107.673 88.2656 107.611 88.0059 107.567 87.758C107.528 87.5125 107.51 87.2657 107.513 87.0177C107.519 86.7767 107.554 86.5321 107.617 86.2838C107.681 86.0354 107.78 85.775 107.914 85.5025C108.056 85.2156 108.228 84.9644 108.43 84.7488C108.634 84.5404 108.863 84.3831 109.118 84.2771C109.373 84.171 109.649 84.1232 109.948 84.1338C110.243 84.1492 110.554 84.2372 110.879 84.3979C111.166 84.5398 111.403 84.7522 111.59 85.0352C111.78 85.3253 111.894 85.6969 111.932 86.1499C111.967 86.6077 111.912 87.1517 111.767 87.7821C111.62 88.4172 111.351 89.153 110.961 89.9896L111.492 90.252C112.042 90.5238 112.511 90.6099 112.899 90.5104C113.288 90.4109 113.594 90.134 113.819 89.6798C113.97 89.3738 114.059 89.0967 114.087 88.8486C114.112 88.6052 114.114 88.3833 114.094 88.1831C114.077 87.99 114.058 87.8171 114.038 87.6645C114.016 87.5168 114.035 87.3831 114.094 87.2636C114.141 87.168 114.209 87.0973 114.297 87.0516C114.383 87.0107 114.472 86.9864 114.565 86.9788L115.141 86.9512Z" fill="black"/>
<path d="M102.217 94.6188C102.613 94.0958 103.066 93.8029 103.575 93.7401C104.081 93.6815 104.606 93.8582 105.15 94.2703L109.028 97.206L109.598 96.4533C109.653 96.381 109.721 96.3354 109.802 96.3166C109.884 96.3052 109.97 96.3333 110.059 96.4009L110.563 96.7824L109.913 97.9459L111.633 99.6896C111.693 99.7613 111.724 99.835 111.727 99.9108C111.731 99.994 111.704 100.074 111.646 100.15L111.168 100.782L108.992 99.1354L107.602 100.972L106.696 100.287L108.087 98.4498L104.291 95.5769C104.036 95.3837 103.798 95.3005 103.577 95.3273C103.357 95.3615 103.173 95.4764 103.025 95.672C102.938 95.7868 102.879 95.8959 102.848 95.9992C102.813 96.1068 102.791 96.2033 102.779 96.2885C102.773 96.377 102.768 96.4538 102.766 96.5189C102.763 96.5839 102.749 96.6335 102.723 96.6675C102.691 96.71 102.656 96.7339 102.619 96.739C102.583 96.7517 102.534 96.7547 102.472 96.748L101.592 96.6641C101.56 96.3183 101.598 95.9665 101.709 95.6086C101.819 95.2507 101.989 94.9207 102.217 94.6188Z" fill="black"/>
<path d="M98.7184 107.713C98.7147 107.638 98.7182 107.57 98.7288 107.51C98.739 107.458 98.7758 107.403 98.8392 107.346C98.9026 107.289 98.9913 107.252 99.1055 107.235C99.2192 107.226 99.3546 107.2 99.5115 107.159C99.6681 107.126 99.843 107.065 100.036 106.977C100.229 106.896 100.435 106.757 100.652 106.561C100.938 106.304 101.143 106.025 101.267 105.726C101.392 105.426 101.442 105.116 101.417 104.793C101.388 104.475 101.288 104.145 101.117 103.804C100.946 103.463 100.706 103.122 100.399 102.781C100.081 102.429 99.7576 102.15 99.4283 101.944C99.1026 101.742 98.7808 101.612 98.4628 101.554C98.1483 101.5 97.8415 101.519 97.5423 101.609C97.2467 101.703 96.9702 101.867 96.7128 102.099C96.4634 102.324 96.2843 102.539 96.1755 102.745C96.0703 102.955 95.9964 103.144 95.9538 103.312C95.9112 103.479 95.881 103.625 95.8634 103.749C95.8492 103.877 95.8046 103.974 95.7293 104.042C95.6343 104.128 95.5289 104.158 95.4131 104.134L94.6946 104.006C94.6796 103.711 94.7056 103.425 94.7726 103.149C94.8357 102.877 94.9304 102.615 95.0565 102.365C95.1827 102.115 95.3366 101.875 95.5182 101.647C95.696 101.422 95.8937 101.211 96.1115 101.014C96.4877 100.675 96.9026 100.426 97.3563 100.268C97.8061 100.114 98.2714 100.061 98.7524 100.108C99.2293 100.159 99.7104 100.314 100.196 100.573C100.684 100.836 101.15 101.213 101.593 101.704C101.997 102.151 102.309 102.621 102.529 103.111C102.745 103.606 102.856 104.099 102.861 104.59C102.865 105.089 102.759 105.576 102.542 106.052C102.329 106.532 101.992 106.979 101.533 107.394C101.101 107.783 100.659 108.057 100.205 108.215C99.7513 108.372 99.2814 108.441 98.7953 108.42L98.7184 107.713Z" fill="black"/>
<path d="M93.0669 112.108C92.9437 112.578 92.7572 113.009 92.5075 113.398C92.2531 113.79 91.8924 114.121 91.4254 114.389C91.037 114.612 90.6599 114.743 90.2942 114.781C89.9239 114.822 89.5715 114.781 89.2371 114.66C88.9054 114.543 88.5943 114.349 88.3039 114.079C88.0135 113.81 87.754 113.476 87.5254 113.078L84.9461 108.591L86.3056 107.809L88.8849 112.297C89.1746 112.801 89.5147 113.125 89.9054 113.27C90.2987 113.419 90.7335 113.357 91.2098 113.083C91.5566 112.884 91.8347 112.613 92.0442 112.271C92.2518 111.936 92.4039 111.554 92.5008 111.123L89.5308 105.956L90.8833 105.178L96.7675 115.416L95.4149 116.193L93.0669 112.108Z" fill="black"/>
<path d="M70.278 116.257C70.9021 116.14 71.4269 116.008 71.8524 115.862C72.2787 115.721 72.6192 115.567 72.8739 115.398C73.1287 115.23 73.3034 115.049 73.398 114.857C73.4934 114.669 73.525 114.47 73.4927 114.259C73.462 114.059 73.4038 113.89 73.3179 113.752C73.2276 113.62 73.1198 113.515 72.9945 113.437C72.8648 113.365 72.7203 113.32 72.561 113.301C72.4016 113.283 72.2323 113.287 72.0531 113.314C71.8159 113.351 71.6033 113.408 71.4156 113.485C71.2225 113.563 71.0454 113.658 70.8844 113.769C70.7241 113.885 70.5746 114.018 70.4358 114.169C70.297 114.32 70.1637 114.489 70.0359 114.675L70.278 116.257ZM75.3135 118.909C74.9308 119.405 74.4946 119.798 74.005 120.089C73.5101 120.381 72.9489 120.574 72.3216 120.671C71.8629 120.741 71.4453 120.726 71.0687 120.628C70.6928 120.534 70.3631 120.372 70.0794 120.14C69.7957 119.908 69.5646 119.614 69.3861 119.259C69.2022 118.904 69.0756 118.499 69.0062 118.046L68.2215 112.922L68.9095 112.816C69.0624 112.793 69.182 112.799 69.2684 112.834C69.3555 112.875 69.4333 112.96 69.5017 113.09L69.7756 113.768C69.9521 113.547 70.1292 113.347 70.307 113.169C70.4855 112.996 70.6774 112.84 70.8827 112.7C71.0835 112.567 71.3038 112.455 71.5435 112.365C71.7832 112.274 72.0533 112.206 72.3538 112.16C72.6701 112.111 72.9744 112.108 73.2667 112.149C73.5546 112.197 73.815 112.295 74.0481 112.442C74.2811 112.59 74.4789 112.789 74.6413 113.039C74.7985 113.291 74.9045 113.595 74.9594 113.954C75.0078 114.27 74.9699 114.586 74.8456 114.902C74.7168 115.224 74.4778 115.53 74.1284 115.821C73.7738 116.113 73.2968 116.38 72.6973 116.623C72.0925 116.867 71.3358 117.069 70.427 117.23L70.5166 117.815C70.6094 118.421 70.808 118.855 71.1123 119.116C71.4166 119.377 71.8192 119.469 72.3201 119.392C72.6575 119.34 72.9357 119.255 73.1547 119.135C73.3685 119.016 73.5517 118.89 73.7042 118.759C73.8523 118.634 73.9832 118.52 74.0968 118.416C74.2051 118.313 74.3252 118.251 74.457 118.231C74.5624 118.215 74.6591 118.23 74.7471 118.276C74.8298 118.323 74.9009 118.382 74.9604 118.454L75.3135 118.909Z" fill="black"/>
<path d="M45.3828 115.52C45.5946 114.688 45.9218 113.965 46.3642 113.351C46.8014 112.736 47.3255 112.244 47.9363 111.877C48.5458 111.515 49.2233 111.286 49.9688 111.189C50.7143 111.093 51.5005 111.15 52.3275 111.36L56.514 112.426L53.6802 123.559L49.4937 122.493C48.6667 122.283 47.9489 121.957 47.3402 121.516C46.7316 121.075 46.2468 120.547 45.8859 119.932C45.5238 119.323 45.2984 118.641 45.2097 117.886C45.1146 117.136 45.1723 116.347 45.3828 115.52ZM47.0729 115.95C46.9045 116.612 46.8444 117.226 46.8924 117.794C46.9391 118.368 47.0844 118.878 47.3282 119.325C47.5656 119.776 47.8977 120.158 48.3246 120.47C48.7462 120.781 49.2491 121.011 49.8331 121.16L52.3605 121.803L54.5154 113.337L51.988 112.694C51.404 112.545 50.8525 112.507 50.3334 112.578C49.8093 112.648 49.3357 112.822 48.9129 113.1C48.4835 113.381 48.1119 113.76 47.7982 114.236C47.4844 114.712 47.2426 115.283 47.0729 115.95Z" fill="black"/>
<path d="M36.5756 110.048C36.427 110.319 36.3298 110.591 36.2838 110.864C36.2331 111.134 36.2365 111.395 36.294 111.645C36.3515 111.895 36.4622 112.126 36.6262 112.338C36.7901 112.549 37.0124 112.731 37.2931 112.885C37.8685 113.2 38.4132 113.283 38.9272 113.132C39.4365 112.979 39.897 112.633 40.3086 112.092L36.5756 110.048ZM37.2748 106.089C37.5508 105.985 37.8384 105.921 38.1377 105.896C38.4344 105.876 38.731 105.889 39.0276 105.936C39.3242 105.983 39.6174 106.059 39.9071 106.162C40.1921 106.264 40.4632 106.385 40.7205 106.526C41.2117 106.795 41.623 107.126 41.9544 107.521C42.2785 107.917 42.5078 108.359 42.6424 108.846C42.7697 109.335 42.7906 109.863 42.7049 110.431C42.6121 111 42.3966 111.593 42.0585 112.211C41.787 112.707 41.4575 113.125 41.07 113.467C40.68 113.812 40.2552 114.066 39.7957 114.228C39.3314 114.387 38.8412 114.444 38.325 114.399C37.8088 114.353 37.291 114.188 36.7718 113.904C36.3367 113.666 35.9764 113.374 35.691 113.029C35.3982 112.687 35.1929 112.307 35.0748 111.889C34.9567 111.472 34.9317 111.024 34.9997 110.544C35.0631 110.062 35.2343 109.566 35.5135 109.056C35.6288 108.845 35.7303 108.716 35.8181 108.666C35.9033 108.622 36.009 108.634 36.1353 108.703L40.8086 111.262C41.0277 110.829 41.1705 110.424 41.2371 110.047C41.3011 109.674 41.2972 109.332 41.2253 109.019C41.1488 108.703 41.0077 108.422 40.8021 108.176C40.5965 107.929 40.3323 107.718 40.0095 107.541C39.7055 107.375 39.4243 107.266 39.166 107.216C38.903 107.163 38.6703 107.133 38.4677 107.125C38.2578 107.12 38.0799 107.123 37.9339 107.134C37.7832 107.143 37.6658 107.124 37.5816 107.078C37.4693 107.017 37.4058 106.927 37.3911 106.81L37.2748 106.089Z" fill="black"/>
<path d="M34.702 102.907L29.0992 108.795L28.4211 108.15C28.2627 107.999 28.2358 107.83 28.3406 107.643L28.7944 107.003C28.3317 107.056 27.8918 107.039 27.4746 106.951C27.0499 106.864 26.6599 106.651 26.3044 106.312C25.9142 105.941 25.7003 105.531 25.6627 105.083C25.6215 104.639 25.7195 104.18 25.9567 103.707C25.6732 103.835 25.3921 103.909 25.1135 103.931C24.8349 103.953 24.5666 103.934 24.3085 103.872C24.0505 103.811 23.8067 103.715 23.5771 103.585C23.3437 103.451 23.1303 103.292 22.9372 103.108C22.6242 102.811 22.3938 102.496 22.246 102.164C22.0906 101.832 22.018 101.49 22.0281 101.139C22.0383 100.788 22.1312 100.431 22.3071 100.068C22.4829 99.7057 22.74 99.3466 23.0782 98.9911L26.6461 95.2414L27.7821 96.3223L24.2141 100.072C23.795 100.512 23.5754 100.937 23.5554 101.345C23.5315 101.749 23.703 102.126 24.0701 102.475C24.2324 102.629 24.4145 102.747 24.6165 102.829C24.8148 102.915 25.0232 102.955 25.2419 102.949C25.4567 102.94 25.676 102.884 25.8998 102.78C26.1197 102.673 26.3344 102.509 26.544 102.289L30.1119 98.5391L31.2478 99.62L27.6799 103.37C27.2461 103.826 27.017 104.248 26.9927 104.637C26.9685 105.027 27.1321 105.388 27.4837 105.723C27.7271 105.955 28.0138 106.106 28.3438 106.177C28.6737 106.248 29.0304 106.256 29.4139 106.201L33.5719 101.831L34.702 102.907Z" fill="black"/>
<path d="M15.9339 93.5325C15.6253 93.021 15.4316 92.5088 15.3526 91.9958C15.2664 91.4811 15.294 90.9848 15.4356 90.507C15.5698 90.0274 15.8116 89.5764 16.1609 89.1539C16.5056 88.7342 16.952 88.359 17.5 88.0285C18.0481 87.6979 18.5904 87.4766 19.127 87.3647C19.6637 87.2527 20.1754 87.2493 20.6623 87.3542C21.1464 87.4546 21.5982 87.6616 22.0179 87.9753C22.4302 88.2871 22.7907 88.6988 23.0992 89.2102C23.4105 89.7263 23.6093 90.2417 23.6955 90.7564C23.7745 91.2694 23.7469 91.7657 23.6126 92.2453C23.4784 92.7249 23.238 93.1782 22.8914 93.6052C22.5421 94.0277 22.0934 94.4042 21.5454 94.7348C20.9974 95.0654 20.4574 95.2853 19.9253 95.3944C19.3859 95.5018 18.8728 95.503 18.3859 95.3981C17.8945 95.2959 17.4426 95.0889 17.0303 94.777C16.6106 94.4634 16.2452 94.0485 15.9339 93.5325ZM22.058 89.8383C21.6613 89.1807 21.1437 88.8234 20.5051 88.7664C19.8665 88.7093 19.1454 88.9232 18.3416 89.4081C17.5378 89.8929 17.0123 90.4311 16.7649 91.0225C16.5129 91.6167 16.5853 92.2426 16.982 92.9003C17.3842 93.567 17.9082 93.9298 18.5541 93.9886C19.1927 94.0457 19.9138 93.8318 20.7176 93.3469C21.5213 92.8621 22.0469 92.324 22.2943 91.7325C22.5389 91.1365 22.4602 90.5051 22.058 89.8383Z" fill="black"/>
<path d="M18.667 82.4996C18.5319 82.5495 18.3951 82.5716 18.2565 82.566C18.118 82.5603 17.988 82.5316 17.8665 82.4798C17.7431 82.4231 17.6343 82.3439 17.5399 82.2423C17.4405 82.1426 17.3649 82.0227 17.3131 81.8826C17.2632 81.7475 17.2436 81.6098 17.2543 81.4694C17.2599 81.3308 17.2911 81.1999 17.3479 81.0766C17.4047 80.9533 17.4838 80.8444 17.5854 80.75C17.6851 80.6506 17.8025 80.5759 17.9376 80.526C18.0777 80.4743 18.2179 80.4537 18.3583 80.4644C18.4969 80.47 18.6278 80.5012 18.7511 80.558C18.8745 80.6148 18.9833 80.6939 19.0777 80.7955C19.1721 80.8971 19.2443 81.0154 19.2942 81.1505C19.346 81.2906 19.369 81.4299 19.3634 81.5684C19.3577 81.707 19.3265 81.8379 19.2697 81.9612C19.2111 82.0796 19.131 82.1859 19.0294 82.2803C18.9279 82.3747 18.807 82.4478 18.667 82.4996Z" fill="black"/>
<path d="M16.609 75.8496C16.4682 75.8799 16.3296 75.8825 16.1933 75.8574C16.0569 75.8322 15.9323 75.7855 15.8193 75.7171C15.7052 75.6435 15.6086 75.5497 15.5295 75.4358C15.4452 75.3231 15.3873 75.1937 15.3558 75.0477C15.3254 74.907 15.3254 74.7679 15.3558 74.6304C15.381 74.494 15.4303 74.3688 15.5039 74.2547C15.5776 74.1406 15.6713 74.044 15.7852 73.9649C15.8979 73.8806 16.0247 73.8232 16.1655 73.7929C16.3114 73.7614 16.4532 73.7608 16.5907 73.7912C16.727 73.8164 16.8523 73.8657 16.9663 73.9393C17.0804 74.0129 17.177 74.1067 17.2561 74.2206C17.3352 74.3344 17.39 74.4618 17.4203 74.6025C17.4518 74.7485 17.455 74.8897 17.4298 75.0261C17.4047 75.1624 17.3553 75.2876 17.2817 75.4017C17.207 75.5106 17.1126 75.6046 16.9988 75.6837C16.8849 75.7628 16.755 75.8181 16.609 75.8496Z" fill="black"/>
<path d="M15.5098 68.9759C15.3662 68.9861 15.2286 68.9691 15.0972 68.925C14.9657 68.8808 14.8489 68.8169 14.7467 68.7333C14.6442 68.6443 14.5618 68.5379 14.4995 68.414C14.432 68.2904 14.3929 68.1542 14.3823 68.0052C14.3721 67.8616 14.3918 67.7238 14.4412 67.592C14.4854 67.4606 14.5519 67.3436 14.6409 67.241C14.7299 67.1385 14.8363 67.0561 14.9602 66.9938C15.0838 66.9262 15.2173 66.8874 15.361 66.8772C15.5099 66.8666 15.6503 66.8861 15.7822 66.9355C15.9136 66.9797 16.0306 67.0462 16.1332 67.1352C16.2357 67.2242 16.3181 67.3306 16.3804 67.4545C16.4426 67.5784 16.4788 67.7122 16.489 67.8558C16.4996 68.0048 16.4828 68.145 16.4387 68.2764C16.3945 68.4079 16.328 68.5249 16.239 68.6274C16.1496 68.7247 16.043 68.8044 15.9191 68.8667C15.7952 68.9289 15.6588 68.9653 15.5098 68.9759Z" fill="black"/>
<path d="M7.2714 45.2068L17.9706 50.7154L17.7061 52.2285L8.83126 53.5195C8.65212 53.5532 8.44021 53.573 8.19553 53.579C8.4271 53.679 8.61972 53.7695 8.7734 53.8505L16.6785 58.1073L16.4154 59.6125L4.4818 61.1648L4.72701 59.762C4.75272 59.6149 4.81108 59.4979 4.90208 59.4109C4.98783 59.3231 5.09387 59.2739 5.22022 59.2635L13.1832 58.3572C13.3377 58.3409 13.5043 58.3321 13.6832 58.3309C13.863 58.3244 14.0507 58.3193 14.2463 58.3156C14.0636 58.2458 13.8887 58.1773 13.7218 58.1102C13.5558 58.0379 13.4038 57.9626 13.2659 57.8844L6.13906 54.0072C6.0395 53.9573 5.95904 53.8756 5.89769 53.762C5.83725 53.6432 5.81943 53.5128 5.84422 53.371L5.92826 52.8902C5.95397 52.7431 6.01187 52.6287 6.10195 52.547C6.19204 52.4653 6.29854 52.4136 6.42147 52.3917L14.4396 51.1702C14.7451 51.1261 15.0881 51.0995 15.4687 51.0902C15.1173 50.9638 14.8008 50.8381 14.5195 50.7131L7.33756 47.1512C7.23708 47.1066 7.15662 47.0248 7.09618 46.906C7.03574 46.7871 7.01792 46.6568 7.04272 46.5149L7.2714 45.2068Z" fill="black"/>
<path d="M18.7018 40.2704C18.4458 40.8516 18.258 41.359 18.1382 41.7926C18.0136 42.2239 17.9488 42.5922 17.9439 42.8976C17.9391 43.203 17.9893 43.4491 18.0948 43.636C18.1954 43.8205 18.3418 43.959 18.534 44.0515C18.7167 44.1394 18.8892 44.1868 19.0515 44.1939C19.2113 44.1938 19.3587 44.1641 19.4938 44.1048C19.6264 44.0384 19.7454 43.9447 19.8509 43.8239C19.9564 43.703 20.0485 43.5608 20.1271 43.3974C20.2311 43.1812 20.3043 42.9737 20.3466 42.7751C20.3912 42.5716 20.4132 42.3721 20.4126 42.1765C20.4072 41.9786 20.3815 41.7798 20.3355 41.5801C20.2895 41.3805 20.2255 41.1751 20.1436 40.9641L18.7018 40.2704ZM13.6685 42.9271C13.4758 42.3313 13.3977 41.7493 13.4343 41.181C13.4733 40.6079 13.6303 40.0354 13.9055 39.4634C14.1066 39.0453 14.3543 38.7088 14.6486 38.4538C14.9381 38.1965 15.2586 38.0163 15.61 37.9131C15.9615 37.81 16.3345 37.7852 16.7289 37.8388C17.1256 37.8876 17.5306 38.0114 17.9439 38.2103L22.6155 40.4576L22.3138 41.0848C22.2467 41.2242 22.1742 41.3195 22.0963 41.3708C22.0136 41.4197 21.8993 41.4358 21.7535 41.4189L21.0391 41.2617C21.1219 41.5324 21.1867 41.7914 21.2334 42.0387C21.2753 42.2838 21.2958 42.5304 21.2948 42.7785C21.2913 43.0195 21.2593 43.2645 21.1987 43.5135C21.1381 43.7625 21.0419 44.0239 20.9101 44.2979C20.7714 44.5863 20.6023 44.8393 20.4029 45.057C20.2009 45.2677 19.9732 45.4274 19.7196 45.5362C19.466 45.645 19.1901 45.6958 18.8918 45.6884C18.5958 45.6762 18.2844 45.5915 17.9576 45.4343C17.6692 45.2956 17.4299 45.0857 17.2395 44.8048C17.0467 44.5167 16.9289 44.1464 16.8862 43.6938C16.8458 43.2364 16.8948 42.6918 17.033 42.0599C17.1736 41.4233 17.4343 40.6846 17.815 39.8439L17.2815 39.5872C16.7288 39.3213 16.2589 39.2403 15.8716 39.344C15.4844 39.4477 15.1809 39.7278 14.9613 40.1844C14.8133 40.492 14.7269 40.77 14.7021 41.0185C14.6796 41.2621 14.6794 41.484 14.7015 41.684C14.7212 41.877 14.7417 42.0496 14.7631 42.2019C14.7868 42.3495 14.7698 42.4833 14.712 42.6035C14.6657 42.6996 14.5988 42.771 14.5113 42.8176C14.4261 42.8595 14.337 42.8847 14.2441 42.8933L13.6685 42.9271Z" fill="black"/>
<path d="M26.5097 35.1214C26.1195 35.6487 25.6701 35.9465 25.1618 36.0147C24.6566 36.0787 24.1296 35.9077 23.5809 35.5015L19.6713 32.6078L19.1097 33.3666C19.0558 33.4394 18.9883 33.4857 18.9074 33.5054C18.8253 33.5177 18.7393 33.4905 18.6492 33.4239L18.1413 33.0479L18.7787 31.8774L17.0397 30.1524C16.9795 30.0813 16.9476 30.0079 16.9439 29.9322C16.9391 29.849 16.9653 29.7689 17.0224 29.6917L17.4936 29.0551L19.6863 30.6781L21.057 28.8262L21.9701 29.502L20.5994 31.3539L24.4254 34.1858C24.6826 34.3761 24.9215 34.4568 25.1421 34.4276C25.3616 34.391 25.5444 34.2742 25.6903 34.077C25.776 33.9612 25.834 33.8515 25.8642 33.7479C25.8977 33.6399 25.9195 33.5432 25.9296 33.4578C25.9354 33.3693 25.9392 33.2924 25.941 33.2274C25.9427 33.1623 25.9562 33.1126 25.9816 33.0783C26.0133 33.0354 26.0479 33.0112 26.0852 33.0056C26.1213 32.9926 26.1704 32.9891 26.2323 32.9951L27.1128 33.0695C27.1491 33.4149 27.114 33.7672 27.0075 34.1262C26.9009 34.4853 26.735 34.817 26.5097 35.1214Z" fill="black"/>
<path d="M29.8676 21.9896C29.8721 22.0653 29.8694 22.1331 29.8594 22.1931C29.8497 22.2455 29.8135 22.3007 29.7508 22.3585C29.688 22.4164 29.5997 22.4543 29.4857 22.4723C29.3721 22.4828 29.237 22.5094 29.0805 22.5521C28.9243 22.5873 28.75 22.65 28.5577 22.7404C28.3656 22.8232 28.1617 22.964 27.9461 23.1628C27.6637 23.4231 27.4617 23.7036 27.3401 24.0044C27.2184 24.3052 27.1718 24.6166 27.2003 24.9385C27.2326 25.2569 27.3363 25.5857 27.5112 25.9249C27.6862 26.2642 27.9291 26.6024 28.24 26.9396C28.5617 27.2886 28.8884 27.5642 29.2199 27.7664C29.5477 27.9646 29.871 28.091 30.1896 28.1454C30.5046 28.1959 30.8112 28.1744 31.1094 28.0808C31.4039 27.9834 31.6787 27.8171 31.9335 27.5821C32.1806 27.3544 32.3573 27.137 32.4639 26.9299C32.5668 26.719 32.6387 26.5294 32.6795 26.3612C32.7203 26.193 32.7488 26.047 32.7652 25.9231C32.7779 25.7953 32.8215 25.697 32.896 25.6283C32.9901 25.5416 33.0952 25.51 33.2113 25.5336L33.9311 25.6534C33.9493 25.9485 33.9264 26.2344 33.8623 26.5111C33.8021 26.7842 33.7103 27.0466 33.5869 27.2982C33.4635 27.5499 33.3121 27.7909 33.1329 28.0215C32.9576 28.2483 32.7622 28.4612 32.5465 28.66C32.174 29.0035 31.7618 29.2566 31.3098 29.4194C30.8617 29.5786 30.397 29.6372 29.9156 29.595C29.4381 29.5492 28.9554 29.3994 28.4675 29.1455C27.976 28.8878 27.5061 28.5158 27.0578 28.0296C26.6493 27.5865 26.3323 27.1207 26.1068 26.6322C25.8852 26.1401 25.7693 25.6485 25.759 25.1575C25.749 24.6588 25.85 24.1704 26.0619 23.6921C26.2702 23.2099 26.6018 22.7591 27.0566 22.3397C27.484 21.9457 27.9237 21.6673 28.3757 21.5044C28.8277 21.3416 29.2968 21.2682 29.783 21.2841L29.8676 21.9896Z" fill="black"/>
<path d="M35.4704 17.5341C35.5885 17.0622 35.7703 16.6301 36.0159 16.2378C36.266 15.8428 36.6231 15.5086 37.0872 15.2352C37.4732 15.0077 37.8488 14.8731 38.2141 14.8312C38.584 14.7866 38.9368 14.8232 39.2724 14.9412C39.6054 15.0545 39.9185 15.2445 40.2118 15.5112C40.5052 15.7779 40.7682 16.1088 41.0011 16.504L43.6286 20.9635L42.2776 21.7595L39.6501 17.3C39.355 16.7991 39.0114 16.4785 38.6192 16.3382C38.2243 16.1932 37.7902 16.2602 37.3169 16.539C36.9722 16.7421 36.697 17.0157 36.4912 17.3598C36.2873 17.6966 36.1393 18.081 36.0471 18.5129L39.0726 23.6478L37.7285 24.4398L31.7344 14.2663L33.0784 13.4744L35.4704 17.5341Z" fill="black"/>
<path d="M58.2138 13.1395C57.5909 13.2634 57.0676 13.4007 56.6437 13.5513C56.219 13.6967 55.8802 13.855 55.6272 14.0263C55.3743 14.1975 55.2016 14.3799 55.109 14.5734C55.0156 14.7617 54.9862 14.9611 55.0208 15.1716C55.0536 15.3716 55.1137 15.5401 55.201 15.6771C55.2928 15.808 55.4017 15.9117 55.5278 15.9883C55.6582 16.0588 55.8032 16.1025 55.9628 16.1196C56.1223 16.1366 56.2915 16.1304 56.4705 16.1011C56.7073 16.0622 56.9192 16.0031 57.1062 15.9238C57.2984 15.8436 57.4744 15.7471 57.6343 15.6344C57.7932 15.5164 57.9413 15.3813 58.0785 15.2291C58.2156 15.0768 58.3471 14.9066 58.4729 14.7184L58.2138 13.1395ZM53.15 10.5415C53.5274 10.0418 53.9593 9.64392 54.4457 9.34787C54.9375 9.05096 55.4965 8.8511 56.1228 8.74828C56.5806 8.67311 56.9984 8.6829 57.3761 8.77764C57.7529 8.86711 58.0844 9.02618 58.3705 9.25484C58.6567 9.48351 58.8909 9.77473 59.0733 10.1285C59.261 10.4815 59.392 10.8842 59.4663 11.3368L60.3061 16.4524L59.6192 16.5651C59.4666 16.5902 59.347 16.5855 59.2602 16.5511C59.1727 16.5114 59.0939 16.4271 59.0241 16.298L58.743 15.6226C58.5688 15.8458 58.3939 16.0474 58.2181 16.2276C58.0414 16.4026 57.8512 16.5608 57.6474 16.7024C57.4481 16.8378 57.229 16.9521 56.9903 17.0453C56.7516 17.1386 56.4823 17.2098 56.1823 17.2591C55.8665 17.3109 55.5622 17.3176 55.2695 17.2792C54.9811 17.2347 54.7196 17.1398 54.485 16.9945C54.2504 16.8493 54.0505 16.6524 53.8854 16.4039C53.7255 16.1545 53.6162 15.8508 53.5575 15.4929C53.5057 15.1772 53.5402 14.8607 53.6611 14.5436C53.7864 14.2204 54.0221 13.9114 54.3683 13.6168C54.7197 13.3213 55.1938 13.0489 55.7907 12.7996C56.3928 12.5494 57.1473 12.3391 58.0543 12.1685L57.9584 11.5844C57.8591 10.9791 57.6558 10.5477 57.3487 10.29C57.0416 10.0324 56.638 9.94461 56.1381 10.0267C55.8012 10.082 55.524 10.1707 55.3062 10.293C55.0937 10.4143 54.9119 10.5415 54.7608 10.6744C54.6141 10.8011 54.4844 10.917 54.372 11.0219C54.2647 11.126 54.1453 11.1889 54.0138 11.2105C53.9085 11.2277 53.8117 11.2139 53.7232 11.169C53.64 11.1232 53.5683 11.0647 53.5079 10.9935L53.15 10.5415Z" fill="black"/>
<path d="M83.1155 13.609C82.9127 14.4434 82.5933 15.1698 82.1576 15.7884C81.727 16.4082 81.2083 16.9051 80.6014 17.279C79.9959 17.6477 79.3209 17.8843 78.5765 17.9888C77.8321 18.0932 77.0453 18.0446 76.2161 17.8431L72.0183 16.8226L74.732 5.65971L78.9297 6.68017C79.7589 6.88174 80.4802 7.19979 81.0936 7.63431C81.707 8.06883 82.1974 8.59147 82.5649 9.20222C82.9336 9.80779 83.1663 10.4873 83.2631 11.2408C83.3662 11.9904 83.3171 12.7798 83.1155 13.609ZM81.4208 13.197C81.5821 12.5337 81.6357 11.9183 81.5815 11.3507C81.5286 10.778 81.3779 10.2694 81.1292 9.82471C80.887 9.37613 80.5508 8.99801 80.1206 8.69036C79.6956 8.38397 79.1903 8.15959 78.6047 8.01723L76.0705 7.40118L74.0069 15.89L76.5411 16.506C77.1267 16.6484 77.6786 16.681 78.1968 16.6039C78.7202 16.528 79.1919 16.3491 79.6117 16.0669C80.038 15.7808 80.4055 15.3982 80.7141 14.9188C81.0227 14.4395 81.2583 13.8656 81.4208 13.197Z" fill="black"/>
<path d="M91.9821 18.9858C92.1277 18.7129 92.222 18.4398 92.2651 18.1666C92.3128 17.8958 92.3066 17.6356 92.2464 17.3859C92.1863 17.1361 92.0731 16.9065 91.9068 16.6968C91.7406 16.4872 91.5163 16.3071 91.234 16.1564C90.6553 15.8476 90.1097 15.7711 89.5974 15.9269C89.0897 16.0852 88.633 16.4369 88.2272 16.9821L91.9821 18.9858ZM91.3256 22.9518C91.0507 23.059 90.7638 23.1265 90.4648 23.1544C90.1684 23.1775 89.8716 23.1673 89.5745 23.1236C89.2774 23.0799 88.9835 23.0077 88.6927 22.9069C88.4066 22.8086 88.1341 22.6905 87.8753 22.5524C87.3813 22.2887 86.9665 21.9616 86.6309 21.5709C86.3025 21.178 86.0684 20.7388 85.9286 20.2531C85.796 19.7652 85.7695 19.2372 85.849 18.6691C85.9357 18.0987 86.1448 17.503 86.4762 16.8819C86.7424 16.3831 87.0673 15.9611 87.4511 15.6158C87.8374 15.2658 88.2594 15.0073 88.7172 14.8406C89.1796 14.6763 89.6692 14.6141 90.1859 14.6541C90.7026 14.694 91.2221 14.8534 91.7444 15.1321C92.182 15.3656 92.5454 15.6532 92.8345 15.9949C93.1309 16.3345 93.3404 16.7122 93.463 17.1283C93.5855 17.5443 93.6154 17.9925 93.5525 18.4728C93.4944 18.9556 93.3285 19.4534 93.0548 19.9663C92.9418 20.178 92.8417 20.309 92.7544 20.3592C92.6697 20.4046 92.5638 20.3935 92.4368 20.3257L87.7362 17.8173C87.5218 18.253 87.3834 18.6597 87.3209 19.0374C87.2609 19.4104 87.2685 19.753 87.3437 20.0652C87.4236 20.3799 87.5677 20.6593 87.776 20.9034C87.9842 21.1475 88.2507 21.3562 88.5753 21.5295C88.8812 21.6927 89.1635 21.798 89.4223 21.8454C89.6858 21.8954 89.9189 21.923 90.1216 21.9284C90.3315 21.9316 90.5094 21.9268 90.6552 21.914C90.8058 21.9036 90.9235 21.9211 91.0082 21.9663C91.1211 22.0265 91.1856 22.1153 91.2015 22.2327L91.3256 22.9518Z" fill="black"/>
<path d="M93.9316 26.1062L99.4707 20.1578L100.156 20.7957C100.316 20.9447 100.344 21.1135 100.242 21.3021L99.7948 21.9463C100.257 21.8883 100.697 21.9009 101.115 21.9842C101.541 22.0671 101.933 22.2758 102.292 22.6102C102.686 22.9772 102.905 23.3846 102.947 23.8321C102.993 24.2758 102.9 24.7357 102.668 25.2119C102.95 25.0811 103.23 25.0032 103.508 24.9782C103.787 24.9532 104.055 24.97 104.314 25.0287C104.573 25.0874 104.818 25.1806 105.049 25.3082C105.283 25.4395 105.498 25.596 105.694 25.7777C106.01 26.0721 106.244 26.3845 106.395 26.715C106.554 27.0452 106.63 27.3858 106.624 27.737C106.617 28.0882 106.528 28.4461 106.356 28.8107C106.184 29.1753 105.931 29.5372 105.597 29.8963L102.07 33.6842L100.922 32.6157L104.449 28.8277C104.864 28.3827 105.079 27.9562 105.094 27.5481C105.114 27.1436 104.938 26.7688 104.568 26.4235C104.404 26.2708 104.22 26.1547 104.017 26.0751C103.818 25.9917 103.609 25.9538 103.391 25.9616C103.176 25.973 102.957 26.0318 102.735 26.1378C102.516 26.2475 102.303 26.4136 102.096 26.6361L98.5685 30.424L97.421 29.3555L100.948 25.5675C101.377 25.1069 101.602 24.6819 101.622 24.2925C101.642 23.9031 101.474 23.5431 101.119 23.2123C100.873 22.9833 100.585 22.8351 100.254 22.7677C99.9235 22.7002 99.5668 22.6959 99.1839 22.7548L95.0732 27.1693L93.9316 26.1062Z" fill="black"/>
<path d="M112.8 35.2778C113.114 35.7859 113.313 36.296 113.398 36.8081C113.49 37.3219 113.467 37.8184 113.331 38.2977C113.202 38.7787 112.965 39.2323 112.62 39.6585C112.28 40.082 111.838 40.4619 111.293 40.7983C110.749 41.1348 110.209 41.3619 109.673 41.4796C109.138 41.5973 108.626 41.6063 108.138 41.5066C107.653 41.4115 107.199 41.2093 106.776 40.9002C106.361 40.5928 105.996 40.1851 105.682 39.677C105.365 39.1643 105.16 38.6511 105.069 38.1373C104.984 37.6252 105.006 37.1287 105.136 36.6477C105.265 36.1666 105.5 35.7107 105.842 35.28C106.187 34.8538 106.631 34.4724 107.176 34.136C107.72 33.7995 108.258 33.5738 108.789 33.4589C109.327 33.3457 109.84 33.339 110.328 33.4387C110.82 33.5356 111.275 33.7377 111.69 34.0451C112.113 34.3542 112.483 34.7651 112.8 35.2778ZM106.716 39.0377C107.12 39.691 107.641 40.0427 108.28 40.0929C108.92 40.143 109.638 39.9214 110.437 39.4279C111.235 38.9344 111.755 38.3906 111.996 37.7966C112.242 37.1997 112.163 36.5746 111.759 35.9213C111.349 35.2589 110.821 34.9017 110.175 34.8499C109.536 34.7997 108.817 35.0214 108.019 35.5148C107.22 36.0083 106.7 36.5521 106.459 37.1462C106.221 37.7448 106.307 38.3753 106.716 39.0377Z" fill="black"/>
<path d="M110.186 46.3391C110.32 46.2877 110.457 46.2641 110.595 46.2683C110.734 46.2725 110.864 46.2998 110.986 46.3502C111.11 46.4057 111.22 46.4837 111.315 46.5842C111.416 46.6829 111.493 46.802 111.546 46.9415C111.597 47.076 111.619 47.2135 111.609 47.354C111.605 47.4926 111.575 47.6239 111.52 47.7478C111.465 47.8717 111.387 47.9815 111.286 48.0769C111.187 48.1774 111.071 48.2533 110.936 48.3047C110.797 48.358 110.657 48.38 110.516 48.3709C110.378 48.3667 110.246 48.3369 110.122 48.2815C109.999 48.226 109.889 48.148 109.793 48.0475C109.698 47.9469 109.624 47.8294 109.573 47.6949C109.52 47.5554 109.495 47.4163 109.499 47.2777C109.504 47.1391 109.533 47.0078 109.589 46.8839C109.646 46.765 109.725 46.6577 109.826 46.5623C109.926 46.4668 110.046 46.3924 110.186 46.3391Z" fill="black"/>
<path d="M112.316 52.9666C112.456 52.9347 112.595 52.9306 112.731 52.9543C112.868 52.978 112.993 53.0234 113.107 53.0906C113.222 53.163 113.319 53.2557 113.4 53.3687C113.485 53.4805 113.544 53.6093 113.578 53.7549C113.609 53.8953 113.611 54.0344 113.582 54.1722C113.558 54.3089 113.51 54.4346 113.438 54.5495C113.366 54.6643 113.273 54.762 113.16 54.8423C113.048 54.9278 112.922 54.9865 112.781 55.0184C112.636 55.0515 112.494 55.0535 112.356 55.0247C112.22 55.001 112.094 54.9529 111.979 54.8806C111.864 54.8082 111.767 54.7155 111.686 54.6025C111.606 54.4895 111.55 54.3627 111.518 54.2223C111.485 54.0767 111.48 53.9355 111.504 53.7989C111.528 53.6623 111.576 53.5365 111.648 53.4217C111.721 53.312 111.815 53.217 111.928 53.1367C112.041 53.0563 112.17 52.9996 112.316 52.9666Z" fill="black"/>
<path d="M113.488 59.8283C113.632 59.8166 113.769 59.8321 113.901 59.8748C114.033 59.9175 114.151 59.9802 114.254 60.0627C114.357 60.1506 114.441 60.2561 114.504 60.3793C114.573 60.5021 114.614 60.6379 114.626 60.7868C114.638 60.9303 114.62 61.0682 114.572 61.2006C114.529 61.3325 114.464 61.4502 114.376 61.5537C114.288 61.6572 114.182 61.7408 114.059 61.8044C113.936 61.8733 113.803 61.9136 113.66 61.9253C113.511 61.9375 113.37 61.9195 113.238 61.8715C113.106 61.8288 112.988 61.7635 112.885 61.6756C112.781 61.5878 112.698 61.4822 112.634 61.359C112.57 61.2358 112.533 61.1024 112.521 60.9589C112.509 60.81 112.524 60.6696 112.567 60.5377C112.61 60.4058 112.675 60.2881 112.763 60.1846C112.851 60.0864 112.957 60.0055 113.08 59.9419C113.203 59.8783 113.339 59.8405 113.488 59.8283Z" fill="black"/>
<defs>
<clipPath id="clip0_1_1816">
<rect width="60" height="60" fill="white" transform="translate(35.209 33.1689)"/>
</clipPath>
</defs>
</svg>
