<svg width="500" height="500" viewBox="0 0 500 500" fill="none" xmlns="http://www.w3.org/2000/svg">
<path d="M250 479.02C381.526 479.02 488.15 417.464 488.15 341.53C488.15 265.596 381.526 204.04 250 204.04C118.473 204.04 11.8496 265.596 11.8496 341.53C11.8496 417.464 118.473 479.02 250 479.02Z" fill="#F0F0F0"/>
<path d="M106.15 369.63C147.384 369.63 180.81 351.122 180.81 328.29C180.81 305.459 147.384 286.95 106.15 286.95C64.9167 286.95 31.4902 305.459 31.4902 328.29C31.4902 351.122 64.9167 369.63 106.15 369.63Z" fill="#E0E0E0"/>
<path d="M60.5008 396.5L177.501 464.03C178.1 464.331 178.761 464.487 179.431 464.487C180.101 464.487 180.762 464.331 181.361 464.03L388.261 344.57C388.493 344.49 388.694 344.339 388.836 344.139C388.978 343.939 389.055 343.7 389.055 343.455C389.055 343.21 388.978 342.97 388.836 342.771C388.694 342.571 388.493 342.42 388.261 342.34L271.261 274.81C270.664 274.509 270.004 274.353 269.336 274.353C268.667 274.353 268.008 274.509 267.411 274.81L60.5008 394.27C60.269 394.35 60.068 394.501 59.9257 394.701C59.7835 394.9 59.707 395.14 59.707 395.385C59.707 395.63 59.7835 395.869 59.9257 396.069C60.068 396.269 60.269 396.42 60.5008 396.5Z" fill="#E0E0E0"/>
<path d="M384.73 430.25C419.983 430.25 448.56 413.752 448.56 393.4C448.56 373.048 419.983 356.55 384.73 356.55C349.478 356.55 320.9 373.048 320.9 393.4C320.9 413.752 349.478 430.25 384.73 430.25Z" fill="#E0E0E0"/>
<path d="M113.291 362.14C113.072 362.14 112.855 362.097 112.653 362.013C112.451 361.929 112.268 361.806 112.114 361.65C111.959 361.495 111.837 361.311 111.754 361.108C111.672 360.906 111.63 360.689 111.631 360.47V253.7C111.631 253.26 111.806 252.838 112.117 252.526C112.428 252.215 112.851 252.04 113.291 252.04C113.731 252.04 114.153 252.215 114.465 252.526C114.776 252.838 114.951 253.26 114.951 253.7V360.47C114.951 360.911 114.776 361.334 114.465 361.647C114.154 361.96 113.732 362.137 113.291 362.14Z" fill="#455A64"/>
<path d="M179.349 323.27C179.022 323.273 178.7 323.179 178.425 323.002C178.149 322.824 177.932 322.57 177.799 322.27L145.059 239.4C144.898 238.99 144.905 238.533 145.081 238.129C145.256 237.725 145.585 237.407 145.994 237.245C146.404 237.083 146.861 237.091 147.266 237.266C147.67 237.442 147.988 237.77 148.149 238.18L180.889 321C180.989 321.251 181.025 321.523 180.996 321.792C180.966 322.061 180.871 322.318 180.719 322.542C180.567 322.766 180.363 322.949 180.125 323.076C179.886 323.203 179.62 323.269 179.349 323.27Z" fill="#455A64"/>
<path d="M175.411 313.32C175.186 313.32 174.963 313.273 174.757 313.184C174.551 313.095 174.365 312.964 174.211 312.8L113.281 248.33L52.4708 312.52C52.3236 312.688 52.1441 312.824 51.9429 312.921C51.7417 313.018 51.5231 313.074 51.3 313.084C51.0769 313.094 50.8541 313.06 50.6447 312.982C50.4354 312.904 50.2439 312.785 50.0817 312.632C49.9195 312.478 49.7899 312.294 49.7007 312.089C49.6115 311.884 49.5645 311.664 49.5626 311.44C49.5606 311.217 49.6037 310.996 49.6894 310.789C49.775 310.583 49.9013 310.396 50.0608 310.24L112.061 244.77C112.216 244.605 112.404 244.474 112.612 244.385C112.82 244.295 113.044 244.25 113.271 244.25C113.496 244.251 113.718 244.297 113.924 244.387C114.13 244.476 114.316 244.607 114.471 244.77L176.601 310.52C176.751 310.678 176.868 310.864 176.945 311.067C177.023 311.27 177.059 311.487 177.053 311.705C177.046 311.922 176.997 312.136 176.907 312.334C176.818 312.533 176.69 312.711 176.531 312.86C176.23 313.151 175.829 313.316 175.411 313.32Z" fill="#455A64"/>
<path d="M47.2295 323.27C47.0203 323.27 46.8132 323.229 46.6195 323.15C46.4158 323.072 46.2298 322.954 46.072 322.803C45.9143 322.652 45.7881 322.471 45.7007 322.271C45.6133 322.071 45.5664 321.856 45.5627 321.638C45.5591 321.42 45.5988 321.203 45.6795 321L78.4195 238.13C78.5813 237.72 78.8992 237.392 79.3034 237.216C79.7075 237.041 80.1647 237.033 80.5745 237.195C80.9843 237.357 81.313 237.675 81.4883 238.079C81.6637 238.483 81.6713 238.94 81.5095 239.35L48.7695 322.22C48.6474 322.529 48.4353 322.795 48.1608 322.982C47.8862 323.169 47.5618 323.269 47.2295 323.27Z" fill="#455A64"/>
<path d="M177.089 310.76L181.419 322.18C181.428 322.276 181.428 322.373 181.419 322.47V322.68C181.294 322.989 181.064 323.244 180.769 323.4C180.36 323.607 179.908 323.715 179.449 323.715C178.99 323.715 178.538 323.607 178.129 323.4C177.901 323.285 177.721 323.094 177.619 322.86V322.71L173.619 312L177.089 310.76Z" fill="#ECEFF1"/>
<path d="M49.4801 310.76L45.1501 322.18C45.1407 322.276 45.1407 322.373 45.1501 322.47C45.1401 322.539 45.1401 322.61 45.1501 322.68C45.2675 322.994 45.4999 323.251 45.8001 323.4C46.2074 323.607 46.658 323.715 47.1151 323.715C47.5721 323.715 48.0227 323.607 48.4301 323.4C48.6631 323.292 48.8457 323.099 48.9401 322.86V322.71L53.0001 312L49.4801 310.76Z" fill="#ECEFF1"/>
<path d="M115.199 352.21V361.66C115.179 361.827 115.117 361.986 115.019 362.122C114.921 362.258 114.79 362.368 114.639 362.44C114.219 362.653 113.755 362.764 113.284 362.764C112.813 362.764 112.349 362.653 111.929 362.44C111.778 362.368 111.647 362.258 111.549 362.122C111.452 361.986 111.39 361.827 111.369 361.66V352.21C111.958 351.895 112.616 351.73 113.284 351.73C113.952 351.73 114.61 351.895 115.199 352.21Z" fill="#ECEFF1"/>
<path d="M175.801 243.24C175.801 240.73 173.601 238.07 168.961 235.06C160.391 229.5 141.251 218.34 129.261 211.69C129.257 211.666 129.244 211.644 129.226 211.628C129.208 211.612 129.185 211.602 129.161 211.6C119.931 206 111.321 179.33 104.941 159.07C102.761 152.16 100.101 148.25 96.941 146.41C96.191 145.98 93.421 144.46 92.801 144.09C86.541 140.33 78.311 144.84 68.071 150.45C58.631 155.61 51.261 162.22 49.781 179.77C48.871 190.45 49.731 210.86 51.901 226.33C55.041 252.18 58.901 252.22 64.491 256.54C74.131 264 95.831 274.44 105.001 278C121.581 284.52 135.141 274.46 145.241 269.47C154.501 264.794 163.44 259.509 172.001 253.65C174.531 251.82 175.841 249.96 175.811 248C175.781 247.23 175.801 244.05 175.801 243.24Z" fill="#ECEFF1"/>
<path opacity="0.25" d="M175.801 243.24C175.801 240.73 173.601 238.07 168.961 235.06C160.391 229.5 141.251 218.34 129.261 211.69C129.257 211.666 129.244 211.644 129.226 211.628C129.208 211.612 129.185 211.602 129.161 211.6C119.931 206 111.321 179.33 104.941 159.07C102.761 152.16 100.101 148.25 96.941 146.41C96.191 145.98 93.421 144.46 92.801 144.09C86.541 140.33 78.311 144.84 68.071 150.45C58.631 155.61 51.261 162.22 49.781 179.77C48.871 190.45 49.731 210.86 51.901 226.33C55.041 252.18 58.901 252.22 64.491 256.54C74.131 264 95.831 274.44 105.001 278C121.581 284.52 135.141 274.46 145.241 269.47C154.501 264.794 163.44 259.509 172.001 253.65C174.531 251.82 175.841 249.96 175.811 248C175.781 247.23 175.801 244.05 175.801 243.24Z" fill="#1F1F1F"/>
<path d="M96.57 146.2C90.36 142.94 82.29 147.37 72.31 152.84C65.92 156.35 60.47 160.5 57.16 168.27L53 165.83C56.31 158.09 61.75 153.94 68.12 150.45C78.37 144.84 86.59 140.33 92.86 144.09L96.57 146.2Z" fill="#ECEFF1"/>
<path d="M169 235.06C163.44 231.45 163.32 230.53 129 211.52C129.057 211.534 129.112 211.558 129.16 211.59C119.94 205.97 111.34 179.32 104.96 159.07C98.4703 138.49 87.6603 144.45 72.3303 152.85C62.8703 158 55.5003 164.62 54.0003 182.17C52.5003 199.72 55.7503 243.17 61.7403 248.47C68.2703 255.69 94.4803 269.11 104.95 273.23C121.53 279.751 135.09 269.69 145.19 264.701C154.468 260.016 163.424 254.721 172 248.85C177.73 244.67 177.2 240.4 169 235.06Z" fill="#ECEFF1"/>
<g opacity="0.1">
<path d="M72.31 152.85C87.64 144.45 98.45 138.49 104.94 159.07C111.32 179.33 119.94 206 129.16 211.6C129.16 211.6 113.33 211.6 90.4 223.97C66.56 236.84 62.92 249.43 61.83 248.53C55.83 243.53 52.53 199.71 54.02 182.17C55.51 164.63 62.87 158 72.31 152.85Z" fill="#1F1F1F"/>
</g>
<path d="M179.54 328.1L74.5195 267.47L249.93 166.25L354.94 226.88L179.54 328.1Z" fill="#455A64"/>
<path d="M74.5195 267.47V388.73L80.0495 391.92V308.95L174.01 363.2V446.17L179.54 449.36V328.1L74.5195 267.47Z" fill="#263238"/>
<path d="M80.0488 391.92L85.5788 388.73V312.14L80.0488 308.95V391.92Z" fill="#1F1F1F"/>
<path d="M179.539 449.36L185.069 446.17V363.2L349.419 268.37V351.34L354.939 348.15V226.88L179.539 328.1V449.36Z" fill="#37474F"/>
<path d="M349.419 351.34L343.889 348.15V271.56L349.419 268.37V351.34Z" fill="#263238"/>
<g opacity="0.2">
<path d="M170 304.18C164.63 307.27 164.63 312.29 170 315.39C175.37 318.49 184 318.48 189.41 315.39C194.82 312.3 194.77 307.27 189.41 304.18C184.05 301.09 175.38 301.08 170 304.18Z" fill="#1F1F1F"/>
</g>
<g opacity="0.2">
<path d="M92.4603 267.4L131 289.67C131.336 289.842 131.708 289.933 132.085 289.933C132.463 289.933 132.835 289.842 133.17 289.67L161.56 273.28C161.691 273.235 161.804 273.151 161.885 273.039C161.965 272.927 162.008 272.793 162.008 272.655C162.008 272.517 161.965 272.382 161.885 272.27C161.804 272.158 161.691 272.074 161.56 272.03L123 249.75C122.663 249.582 122.292 249.495 121.915 249.495C121.539 249.495 121.168 249.582 120.83 249.75L92.4403 266.15C91.8603 266.49 91.8603 267.05 92.4603 267.4Z" fill="#1F1F1F"/>
</g>
<g opacity="0.2">
<path d="M92.4595 271.38L131 293.65C131.335 293.823 131.707 293.913 132.085 293.913C132.462 293.913 132.834 293.823 133.17 293.65L161.56 277.26C162.16 276.91 162.16 276.35 161.56 276.01L123 253.73C122.662 253.563 122.291 253.476 121.915 253.476C121.538 253.476 121.167 253.563 120.83 253.73L92.4595 270.12C92.3301 270.167 92.2182 270.253 92.1391 270.365C92.06 270.478 92.0176 270.612 92.0176 270.75C92.0176 270.888 92.06 271.022 92.1391 271.135C92.2182 271.248 92.3301 271.333 92.4595 271.38Z" fill="#1F1F1F"/>
</g>
<path d="M92.4595 270.08L131 292.35C131.335 292.523 131.707 292.613 132.085 292.613C132.462 292.613 132.834 292.523 133.17 292.35L161.6 276C162.2 275.65 162.2 275.09 161.6 274.75L123 252.43C122.662 252.263 122.291 252.176 121.915 252.176C121.538 252.176 121.167 252.263 120.83 252.43L92.4595 268.82C92.3301 268.867 92.2182 268.953 92.1391 269.066C92.06 269.178 92.0176 269.313 92.0176 269.45C92.0176 269.588 92.06 269.722 92.1391 269.835C92.2182 269.948 92.3301 270.033 92.4595 270.08Z" fill="#EBEBEB"/>
<path d="M120.849 252.43L93.8887 268L130.999 289.45C131.336 289.618 131.707 289.705 132.084 289.705C132.46 289.705 132.831 289.618 133.169 289.45L160.169 273.88L122.999 252.43C122.664 252.266 122.296 252.181 121.924 252.181C121.551 252.181 121.183 252.266 120.849 252.43Z" fill="#E0E0E0"/>
<path d="M92.4595 266.16L131 288.43C131.335 288.603 131.707 288.693 132.085 288.693C132.462 288.693 132.834 288.603 133.17 288.43L161.6 272C161.729 271.953 161.841 271.868 161.92 271.755C161.999 271.642 162.042 271.508 162.042 271.37C162.042 271.232 161.999 271.098 161.92 270.985C161.841 270.873 161.729 270.787 161.6 270.74L123 248.51C122.664 248.337 122.292 248.247 121.915 248.247C121.537 248.247 121.165 248.337 120.83 248.51L92.4595 264.9C92.3301 264.947 92.2182 265.032 92.1391 265.145C92.06 265.258 92.0176 265.392 92.0176 265.53C92.0176 265.668 92.06 265.802 92.1391 265.915C92.2182 266.028 92.3301 266.113 92.4595 266.16Z" fill="#FAFAFA"/>
<g opacity="0.2">
<path d="M136 247.6L156.85 259.67C157.247 259.872 157.685 259.977 158.13 259.977C158.575 259.977 159.014 259.872 159.41 259.67L226.7 220.8C226.856 220.748 226.991 220.649 227.086 220.516C227.182 220.383 227.234 220.223 227.234 220.06C227.234 219.896 227.182 219.736 227.086 219.604C226.991 219.471 226.856 219.371 226.7 219.32L205.86 207.25C205.462 207.048 205.022 206.942 204.575 206.942C204.129 206.942 203.688 207.048 203.29 207.25L136 246.12C135.845 246.171 135.71 246.271 135.614 246.404C135.518 246.536 135.467 246.696 135.467 246.86C135.467 247.023 135.518 247.183 135.614 247.316C135.71 247.449 135.845 247.548 136 247.6Z" fill="#1F1F1F"/>
</g>
<path d="M136.719 244.77V244.3C136.745 243.897 136.866 243.507 137.071 243.16C137.276 242.812 137.559 242.518 137.899 242.3L199.679 206.6C200.044 206.413 200.448 206.315 200.859 206.315C201.269 206.315 201.673 206.413 202.039 206.6L221.179 217.68C221.516 217.9 221.798 218.195 222.002 218.542C222.207 218.889 222.329 219.278 222.359 219.68V220.15C222.331 220.552 222.209 220.942 222.004 221.289C221.8 221.636 221.517 221.931 221.179 222.15L159.399 257.85C159.033 258.037 158.629 258.134 158.219 258.134C157.808 258.134 157.404 258.037 157.039 257.85L137.899 246.81C137.556 246.586 137.271 246.284 137.066 245.93C136.862 245.576 136.742 245.178 136.719 244.77Z" fill="#E0E0E0"/>
<path d="M137.899 243.62L156.999 254.7C157.365 254.882 157.769 254.977 158.179 254.977C158.588 254.977 158.992 254.882 159.359 254.7L221.179 219C221.32 218.951 221.442 218.859 221.529 218.737C221.616 218.615 221.662 218.469 221.662 218.32C221.662 218.17 221.616 218.025 221.529 217.903C221.442 217.781 221.32 217.689 221.179 217.64L201.999 206.56C201.634 206.373 201.229 206.275 200.819 206.275C200.409 206.275 200.004 206.373 199.639 206.56L137.859 242.26C137.719 242.313 137.599 242.408 137.516 242.533C137.433 242.657 137.39 242.804 137.395 242.954C137.399 243.104 137.45 243.248 137.54 243.367C137.631 243.487 137.756 243.575 137.899 243.62Z" fill="#FAFAFA"/>
<path d="M188.58 310.58C193.31 305.75 196.09 293.68 191.47 289.85H168C163.38 293.68 166.16 305.74 170.89 310.57L171.02 310.71L171.18 310.87L171.61 311.25L171.72 311.34L172.08 311.61C172.28 311.75 172.49 311.88 172.69 312C174.876 313.109 177.293 313.687 179.745 313.687C182.196 313.687 184.613 313.109 186.8 312C187.011 311.879 187.215 311.746 187.41 311.6L187.75 311.35L187.89 311.24C188.03 311.12 188.17 311 188.3 310.87L188.49 310.69L188.58 310.58Z" fill="#EBEBEB"/>
<path d="M170 288.31C164.63 291.4 164.63 296.42 170 299.52C175.37 302.62 184 302.61 189.41 299.52C194.82 296.43 194.77 291.4 189.41 288.31C184.05 285.22 175.38 285.21 170 288.31Z" fill="#FAFAFA"/>
<path d="M173.82 290.5C170.56 292.39 170.56 295.44 173.82 297.32C175.649 298.252 177.672 298.738 179.725 298.738C181.778 298.738 183.801 298.252 185.63 297.32C188.89 295.44 188.89 292.39 185.63 290.5C183.8 289.573 181.777 289.09 179.725 289.09C177.673 289.09 175.65 289.573 173.82 290.5Z" fill="#EBEBEB"/>
<path d="M185.63 293.74C183.8 292.813 181.777 292.33 179.725 292.33C177.674 292.33 175.651 292.813 173.82 293.74C173.015 294.161 172.328 294.777 171.82 295.53C172.328 296.284 173.015 296.899 173.82 297.32C175.649 298.252 177.673 298.739 179.725 298.739C181.778 298.739 183.802 298.252 185.63 297.32C186.438 296.903 187.127 296.287 187.63 295.53C187.127 294.773 186.438 294.157 185.63 293.74Z" fill="#E0E0E0"/>
<path d="M174.539 295.53C172.869 293.836 171.433 291.926 170.269 289.85C168.269 286.36 167.929 281.69 168.949 281.11C169.969 280.53 174.119 285.2 174.119 285.2C173.736 283.225 173.589 281.211 173.679 279.2C173.859 276.09 174.609 273.27 175.499 272.7C176.389 272.13 178.389 276.05 179.239 278.89C180.089 281.73 180.599 284.07 180.599 284.07C180.946 281.855 181.458 279.669 182.129 277.53C183.129 274.58 184.129 273.91 184.839 274.21C185.549 274.51 186.049 275.87 186.259 279.8C186.337 281.676 186.277 283.554 186.079 285.42C186.079 285.42 187.549 283.81 189.169 282.25C190.959 280.54 191.719 280.25 192.229 280.63C192.739 281.01 192.879 283.63 190.119 288.63C188.745 291.176 186.984 293.494 184.899 295.5C184.899 295.5 181.069 298 174.539 295.53Z" fill="#ECEFF1"/>
<path d="M276.999 238.4L281.999 178.16C282.05 177.183 281.848 176.209 281.411 175.333C280.975 174.457 280.32 173.708 279.509 173.16C278.618 172.727 277.638 172.511 276.647 172.528C275.657 172.546 274.685 172.796 273.809 173.26L207.809 211.35C206.94 211.919 206.202 212.667 205.646 213.545C205.091 214.423 204.73 215.411 204.589 216.44L199.589 276.67C199.54 277.646 199.742 278.618 200.177 279.494C200.611 280.369 201.263 281.118 202.069 281.67C202.963 282.101 203.945 282.316 204.937 282.297C205.929 282.278 206.903 282.025 207.779 281.56L273.779 243.48C274.647 242.911 275.383 242.164 275.938 241.288C276.494 240.412 276.855 239.427 276.999 238.4Z" fill="#ECEFF1"/>
<path opacity="0.5" d="M276.999 238.4L281.999 178.16C282.05 177.183 281.848 176.209 281.411 175.333C280.975 174.457 280.32 173.708 279.509 173.16C278.618 172.727 277.638 172.511 276.647 172.528C275.657 172.546 274.685 172.796 273.809 173.26L207.809 211.35C206.94 211.919 206.202 212.667 205.646 213.545C205.091 214.423 204.73 215.411 204.589 216.44L199.589 276.67C199.54 277.646 199.742 278.618 200.177 279.494C200.611 280.369 201.263 281.118 202.069 281.67C202.963 282.101 203.945 282.316 204.937 282.297C205.929 282.278 206.903 282.025 207.779 281.56L273.779 243.48C274.647 242.911 275.383 242.164 275.938 241.288C276.494 240.412 276.855 239.427 276.999 238.4Z" fill="white"/>
<path d="M277 238.4L282 178.16C282.051 177.183 281.848 176.209 281.412 175.333C280.976 174.457 280.321 173.708 279.51 173.16C278.619 172.727 277.638 172.511 276.648 172.528C275.658 172.546 274.685 172.796 273.81 173.26L207.81 211.35C206.938 211.893 206.205 212.633 205.67 213.51L215.92 219.43V276.87L273.78 243.47C274.646 242.903 275.382 242.157 275.937 241.282C276.492 240.408 276.855 239.425 277 238.4Z" fill="#ECEFF1"/>
<path opacity="0.8" d="M277 238.4L282 178.16C282.051 177.183 281.848 176.209 281.412 175.333C280.976 174.457 280.321 173.708 279.51 173.16C278.619 172.727 277.638 172.511 276.648 172.528C275.658 172.546 274.685 172.796 273.81 173.26L207.81 211.35C206.938 211.893 206.205 212.633 205.67 213.51L215.92 219.43V276.87L273.78 243.47C274.646 242.903 275.382 242.157 275.937 241.282C276.492 240.408 276.855 239.425 277 238.4Z" fill="white"/>
<path d="M205.12 279.88L210.12 219.65C210.26 218.62 210.621 217.633 211.176 216.754C211.732 215.876 212.47 215.128 213.34 214.56L279.34 176.47C280.97 175.53 282.16 176.29 282.01 178.16L277.01 238.4C276.867 239.429 276.506 240.415 275.951 241.293C275.396 242.171 274.659 242.92 273.79 243.49L207.79 281.57C206.16 282.51 205 281.75 205.12 279.88Z" fill="#ECEFF1"/>
<path opacity="0.65" d="M205.12 279.88L210.12 219.65C210.26 218.62 210.621 217.633 211.176 216.754C211.732 215.876 212.47 215.128 213.34 214.56L279.34 176.47C280.97 175.53 282.16 176.29 282.01 178.16L277.01 238.4C276.867 239.429 276.506 240.415 275.951 241.293C275.396 242.171 274.659 242.92 273.79 243.49L207.79 281.57C206.16 282.51 205 281.75 205.12 279.88Z" fill="white"/>
<path d="M239.16 231.55C239.42 228.47 241.58 224.84 243.99 223.44C246.4 222.04 248.15 223.44 247.89 226.49C247.63 229.54 245.48 233.21 243.07 234.61C240.66 236.01 238.91 234.64 239.16 231.55Z" fill="#ECEFF1"/>
<path d="M240.709 249.76L256.929 240.34L254.169 238.75L237.959 248.17L240.709 249.76Z" fill="#ECEFF1"/>
<g opacity="0.85">
<path d="M240.709 249.76L256.929 240.34L254.169 238.75L237.959 248.17L240.709 249.76Z" fill="white"/>
</g>
<path d="M264.45 268L244.71 279.4C244.32 279.609 243.882 279.709 243.44 279.69C243.067 279.681 242.702 279.589 242.37 279.42L233.68 274.42H233.63C233.302 274.195 233.031 273.897 232.836 273.55C232.642 273.203 232.53 272.817 232.51 272.42V271.96C232.51 271.21 233.02 270.9 233.68 271.28L238.93 274.28L240.1 274.96L239.84 273.63L238 248.17L240.75 249.77L256.97 240.35L265.38 266C265.43 266.387 265.37 266.78 265.205 267.135C265.04 267.489 264.778 267.789 264.45 268Z" fill="#ECEFF1"/>
<g opacity="0.5">
<path d="M264.45 268L244.71 279.4C244.32 279.609 243.882 279.709 243.44 279.69C243.067 279.681 242.702 279.589 242.37 279.42L233.68 274.42H233.63C233.302 274.195 233.031 273.897 232.836 273.55C232.642 273.203 232.53 272.817 232.51 272.42V271.96C232.51 271.21 233.02 270.9 233.68 271.28L238.93 274.28L240.1 274.96L239.84 273.63L238 248.17L240.75 249.77L256.97 240.35L265.38 266C265.43 266.387 265.37 266.78 265.205 267.135C265.04 267.489 264.778 267.789 264.45 268Z" fill="white"/>
</g>
<path d="M232.84 271.09L239.57 267.2L240.94 276.27L232.84 271.09Z" fill="#ECEFF1"/>
<g opacity="0.25">
<path d="M232.84 271.09L239.57 267.2L240.94 276.27L232.84 271.09Z" fill="#1F1F1F"/>
</g>
<path d="M240.71 249.77L237.96 248.17L239.81 273.56C239.96 274.29 239.54 274.56 238.9 274.21L233.65 271.21C232.99 270.83 232.48 271.14 232.48 271.89V272.35C232.501 272.747 232.613 273.134 232.807 273.481C233.001 273.827 233.273 274.125 233.6 274.35H233.65L242.34 279.35C242.672 279.519 243.038 279.611 243.41 279.62L240.71 249.77Z" fill="#ECEFF1"/>
<g opacity="0.25">
<path d="M240.71 249.77L237.96 248.17L239.81 273.56C239.96 274.29 239.54 274.56 238.9 274.21L233.65 271.21C232.99 270.83 232.48 271.14 232.48 271.89V272.35C232.501 272.747 232.613 273.134 232.807 273.481C233.001 273.827 233.273 274.125 233.6 274.35H233.65L242.34 279.35C242.672 279.519 243.038 279.611 243.41 279.62L240.71 249.77Z" fill="white"/>
</g>
<path opacity="0.2" d="M166.85 266.42L169.89 268.17L193.87 254.13L196.52 251.01L191 252.47L166.85 266.42Z" fill="#1F1F1F"/>
<path d="M191.219 250.34L196.329 249.34C196.361 249.335 196.394 249.339 196.424 249.353C196.453 249.367 196.478 249.39 196.494 249.418C196.511 249.446 196.518 249.479 196.515 249.512C196.512 249.544 196.5 249.575 196.479 249.6L192.999 253.52L191.219 250.34Z" fill="#FFA8A7"/>
<path d="M196.48 249.6C196.501 249.575 196.514 249.544 196.516 249.512C196.519 249.479 196.512 249.446 196.496 249.418C196.479 249.39 196.455 249.367 196.425 249.353C196.395 249.339 196.362 249.335 196.33 249.34L195.33 249.53C195.468 249.615 195.579 249.737 195.652 249.882C195.724 250.027 195.755 250.189 195.74 250.35V250.44L196.48 249.6Z" fill="#263238"/>
<path d="M174 264.44L174.42 264.2L174.93 263.92L193 253.52C193.169 252.959 193.119 252.355 192.86 251.83C192.725 251.467 192.505 251.142 192.218 250.882C191.93 250.623 191.584 250.437 191.21 250.34L173.1 260.73L172.1 261.28C172.79 261 174.6 264.11 174 264.44Z" fill="#ECEFF1"/>
<path d="M175.559 263.54L176.489 263C176.759 262.85 176.609 262.18 176.279 261.48C175.859 260.55 175.019 259.65 174.649 259.84L173.969 260.24L173.719 260.38C174.089 260.19 174.929 261.09 175.349 262.02C175.659 262.69 175.819 263.34 175.579 263.52L175.559 263.54Z" fill="#EBEBEB"/>
<path d="M175.79 263.4C176.43 263.06 174.6 259.9 173.95 260.24L173.02 260.78C173.66 260.44 175.49 263.6 174.85 263.94L175.79 263.4Z" fill="#ECEFF1"/>
<path d="M173.999 264.44L174.929 263.92C175.559 263.59 173.809 260.53 173.149 260.73L172.219 261.27C172.789 261 174.599 264.11 173.999 264.44Z" fill="#EBEBEB"/>
<path opacity="0.15" d="M196.499 249.42L196.329 249.34L192.619 251.34L173.449 262.34C173.449 262.28 173.389 262.28 173.369 262.34C173.909 263.19 174.319 264.26 173.959 264.44L174.379 264.2L174.889 263.92L192.999 253.52L196.469 249.6C196.491 249.576 196.505 249.546 196.51 249.514C196.516 249.482 196.512 249.45 196.499 249.42Z" fill="#1F1F1F"/>
<path d="M170.05 266.69L173.96 264.44C174.24 264.3 174.09 263.63 173.77 262.94C173.35 262 172.51 261.1 172.14 261.28L168.21 263.53C167.43 263.98 168.15 265.68 169.02 266.43C169.145 266.573 169.31 266.675 169.495 266.722C169.679 266.768 169.873 266.757 170.05 266.69Z" fill="#F28F8F"/>
<path opacity="0.1" d="M170.279 265.47C170.181 265.046 169.985 264.651 169.707 264.316C169.43 263.981 169.078 263.715 168.679 263.54C168.584 263.503 168.48 263.491 168.379 263.505C168.277 263.519 168.181 263.558 168.099 263.62C167.509 264.16 168.189 265.72 169.019 266.43C169.142 266.568 169.302 266.666 169.48 266.712C169.658 266.758 169.846 266.751 170.019 266.69C170.319 266.52 170.429 266.07 170.279 265.47Z" fill="#1F1F1F"/>
<path d="M309.061 79.7997C308.869 79.693 308.652 79.6379 308.431 79.6397H297.001L292.281 82.3597V98.6897L297.001 95.9997L301.071 91.2997V102.8L305.791 100.08L318.151 86.7797C318.27 86.6398 318.357 86.4756 318.405 86.2986C318.454 86.1217 318.463 85.9363 318.433 85.7553C318.402 85.5743 318.333 85.4022 318.229 85.251C318.125 85.0997 317.989 84.973 317.831 84.8797L309.061 79.7997Z" fill="#455A64"/>
<path d="M301.09 102.8L305.81 100.08L318.17 86.78C318.328 86.5986 318.43 86.3756 318.464 86.1377C318.498 85.8997 318.463 85.657 318.362 85.4386C318.262 85.2201 318.101 85.0352 317.898 84.906C317.696 84.7768 317.46 84.7087 317.22 84.71H305.81L301.09 87.44V102.8Z" fill="#37474F"/>
<path d="M305.84 71.2296C305.756 69.6594 305.303 68.1312 304.518 66.769C303.733 65.4068 302.637 64.249 301.32 63.3896C299.917 62.6764 298.365 62.3047 296.79 62.3047C295.216 62.3047 293.664 62.6764 292.26 63.3896L257.85 83.0896C256.53 83.9489 255.432 85.1078 254.645 86.4719C253.858 87.836 253.404 89.3668 253.32 90.9396V128.09C253.405 129.661 253.86 131.189 254.647 132.552C255.434 133.914 256.532 135.071 257.85 135.93C259.254 136.643 260.806 137.014 262.38 137.014C263.955 137.014 265.507 136.643 266.91 135.93L301.75 115.93C305.82 113.61 305.86 111.28 305.86 108.39L305.84 71.2296Z" fill="#37474F"/>
<path d="M253.32 128.089C253.405 129.661 253.86 131.189 254.647 132.552C255.434 133.914 256.532 135.071 257.85 135.929C259.128 136.572 260.526 136.938 261.955 137.004C263.383 137.069 264.809 136.833 266.14 136.309C264.01 137.109 262.38 135.889 262.38 133.309V96.1595C262.437 94.5838 262.895 93.0487 263.71 91.6995L254.65 86.4795C253.837 87.8293 253.383 89.3646 253.33 90.9395L253.32 128.089Z" fill="#263238"/>
<path d="M305.701 69.9995C305.171 68.0695 303.411 67.4595 301.321 68.6695L266.901 88.3195C265.56 89.1474 264.46 90.313 263.711 91.6995L254.711 86.4895C255.462 85.1018 256.561 83.9335 257.901 83.0995L292.301 63.3995C293.707 62.6893 295.261 62.3193 296.836 62.3193C298.411 62.3193 299.965 62.6893 301.371 63.3995C302.503 64.1483 303.47 65.1195 304.215 66.2542C304.959 67.3889 305.465 68.6632 305.701 69.9995Z" fill="#455A64"/>
<path d="M288.62 116.06L280.5 120.75V88.2496L288.62 83.5596V116.06Z" fill="#ECEFF1"/>
<path d="M296.751 89.6992V100.529L272.381 114.599V103.769L296.751 89.6992Z" fill="#ECEFF1"/>
<path d="M379.35 116.689C387.35 116.909 389.62 120.109 394.44 126.999C399.26 133.889 415.66 159.999 415.66 159.999L438.89 168.919L435.83 182.469C435.83 182.469 404.78 177.209 402.75 176.019C400.72 174.829 385.6 149.919 385.6 149.919L379.35 116.689Z" fill="#E6E6E6"/>
<path d="M373.23 116.91C380.79 115.02 384.13 119.24 386.65 123.91C398.1 144.91 402.75 270.91 402.75 270.91C402.75 270.91 377.21 281.1 358.26 269.14L373.23 116.91Z" fill="#F0F0F0"/>
<path d="M397.579 333.48L392.799 351.67C392.799 351.67 387.289 354.92 382.539 351.72C378.769 349.18 378.999 346.17 378.999 346.17L379.219 343.43L379.759 322.28L397.579 333.48Z" fill="#B16668"/>
<path d="M374.58 356C373.27 358.91 372.52 367.41 372.52 367.41C372.52 367.41 373.32 370.54 377.67 373.31L381.9 362.07L374.58 356Z" fill="#263238"/>
<path d="M377.67 373.35L388.66 371.84L392.84 363.09L380.11 366.87L377.67 373.35Z" fill="#1F1F1F"/>
<path d="M393.63 348.52L394.22 346.3C395.89 346.39 395.74 349.69 395.86 350.65C396.23 353.4 396.51 356.15 396.93 358.89C397.365 361.924 398.071 364.912 399.04 367.82C400.04 370.59 400.62 373.54 402.31 375.99C404 378.44 406.97 379.89 409.37 381.54C410.005 381.904 410.53 382.432 410.89 383.07C411.44 384.29 410.67 385.7 409.72 386.63C408.034 388.203 405.91 389.229 403.63 389.57C401.359 389.905 399.051 389.905 396.78 389.57C392.746 389.137 388.884 387.707 385.54 385.41C382.32 383.11 381.62 378.56 381.1 374.88C380.68 371.88 380.94 368.39 379.7 365.58C378.46 362.77 374.92 359.08 374.58 356.04C374.434 353.464 374.98 350.895 376.16 348.6C377.45 346.13 378.38 342.98 379.22 343.43L379.07 345.23C379.07 345.1 379.9 348.69 385.07 349.97C387.5 350.58 392.09 350.56 393.63 348.52Z" fill="#263238"/>
<path d="M385.799 368.22C385.939 371.58 385.799 372.97 385.799 374.49C385.939 377.27 386.679 379.2 387.309 381.9C387.58 383.009 387.962 384.087 388.449 385.12C388.969 386.32 389.939 387.94 389.369 389.12C389.087 389.661 388.7 390.141 388.229 390.53C386.149 392.311 383.464 393.224 380.729 393.08C379.289 393.064 377.879 392.66 376.649 391.91C374.239 390.33 373.289 387.45 371.999 385.02C370.589 382.39 371.409 381.02 371.179 378.13C370.898 374.308 370.401 370.505 369.689 366.74C374.899 360.78 379.279 366.56 385.799 368.22Z" fill="#B16668"/>
<path d="M393.778 202C401.588 229.22 414.778 275.48 411.078 289.88C408.278 300.67 396.078 340.07 396.078 340.07C391.368 340.73 381.738 341.78 377.988 333.53C377.038 320.14 373.738 229.22 373.738 229.22L393.778 202Z" fill="#ECEFF1"/>
<path opacity="0.4" d="M393.778 202C401.588 229.22 414.778 275.48 411.078 289.88C408.278 300.67 396.078 340.07 396.078 340.07C391.368 340.73 381.738 341.78 377.988 333.53C377.038 320.14 373.738 229.22 373.738 229.22L393.778 202Z" fill="white"/>
<path opacity="0.25" d="M373.779 229.17C378.737 224.485 383.345 219.445 387.569 214.09C387.569 214.09 386.569 220.54 377.679 229.43C377.679 229.43 392.579 286.82 392.489 295.98C392.399 305.14 387.489 337.98 387.489 337.98L373.779 229.17Z" fill="#1F1F1F"/>
<path d="M393.779 202C387.409 215.21 384.909 220.49 373.779 229.22C373.779 229.22 387.389 285.78 387.989 296.76C388.989 315.01 386.639 355.86 385.799 368.27C383.689 371.03 373.409 371.5 370.169 369.15C368.689 363.41 363.719 343.21 361.389 325.09C359.669 311.7 361.869 299.72 362.149 296.21C354.939 277.82 338.749 250.98 332.829 231.75C331.858 228.421 331.244 224.999 330.999 221.54C329.679 209.35 334.669 200.04 337.599 193.54L393.779 202Z" fill="#ECEFF1"/>
<g opacity="0.5">
<path d="M393.779 202C387.409 215.21 384.909 220.49 373.779 229.22C373.779 229.22 387.389 285.78 387.989 296.76C388.989 315.01 386.639 355.86 385.799 368.27C383.689 371.03 373.409 371.5 370.169 369.15C368.689 363.41 363.719 343.21 361.389 325.09C359.669 311.7 361.869 299.72 362.149 296.21C354.939 277.82 338.749 250.98 332.829 231.75C331.858 228.421 331.244 224.999 330.999 221.54C329.679 209.35 334.669 200.04 337.599 193.54L393.779 202Z" fill="white"/>
</g>
<path d="M368.589 387.35C367.799 390.43 368.519 398.92 368.519 398.92C368.519 398.92 369.829 401.86 374.579 403.85L376.829 392.07L368.589 387.35Z" fill="#263238"/>
<path d="M374.578 403.85L385.138 400.48L387.748 391.17L375.878 397.05L374.578 403.85Z" fill="#1F1F1F"/>
<path d="M385.759 376.699L385.839 374.489C387.259 375.199 390.309 386.729 394.489 394.669C398.309 401.909 405.969 405.989 408.439 409.149C411.739 413.379 405.199 418.729 394.789 416.409C389.629 415.249 381.789 411.869 379.729 408.359C377.669 404.849 376.969 398.429 375.259 395.849C373.549 393.269 369.439 390.279 368.589 387.349C367.926 384.696 367.957 381.917 368.679 379.279C369.519 376.629 369.479 373.909 370.809 373.689L371.009 375.769C371.699 377.199 374.399 378.839 379.659 379.179C382.169 379.329 384.599 378.999 385.759 376.699Z" fill="#37474F"/>
<path d="M367.339 94.1402L362.089 111.89C347.489 111.89 338.469 97.6702 338.469 83.0702C338.469 68.4102 347.809 56.1602 362.469 56.1602H367.229C381.889 56.1602 393.779 65.8902 393.779 80.5602C393.779 90.1102 381.939 94.1402 367.339 94.1402Z" fill="#263238"/>
<path d="M396.52 66.9999C397.641 65.1696 398.181 63.043 398.07 60.8999C398 59.8275 397.688 58.7851 397.156 57.8513C396.624 56.9175 395.887 56.1169 395 55.5099C392.27 53.7699 388.49 54.5899 386 56.5999C385.797 54.6903 384.86 52.9345 383.385 51.7045C381.91 50.4744 380.015 49.8666 378.1 50.0099C375.67 50.1999 373.51 51.5499 371.41 52.7699C367.835 54.5822 363.976 55.7694 360 56.2799L364.47 57.9999C363.862 58.9354 363.476 59.9973 363.341 61.1047C363.206 62.212 363.325 63.3356 363.69 64.3899C363.882 64.8222 364.116 65.2342 364.39 65.6199C367.358 70.0585 371.456 73.6247 376.262 75.9505C381.068 78.2762 386.408 79.2771 391.73 78.8499C393.223 78.8177 394.682 78.4046 395.97 77.6499C396.721 77.1154 397.357 76.4352 397.84 75.6499C398.773 74.2849 399.234 72.6514 399.15 70.9999C399.091 70.1636 398.819 69.3565 398.358 68.656C397.897 67.9555 397.264 67.3852 396.52 66.9999Z" fill="#263238"/>
<path d="M355.94 119L346.37 120C340.02 121.55 337.15 124.35 336.5 130C336.2 132.62 334.61 139.6 336.83 148.35C338.83 156.27 344.21 175.66 344.21 175.66C344.21 175.66 337.26 193.09 334 202C356.58 216.73 384.45 210.91 393.81 202C393.02 193.58 390.04 185.73 389.37 178.22C389.37 178.22 389.85 166.48 390.78 161.39C397.93 153.6 397.01 146.14 393.78 140.13C387.86 129.02 378.93 119.27 376.05 119.28L355.94 119Z" fill="#455A64"/>
<path d="M373.1 112.689C375.96 113.389 378.19 114.549 379.35 116.689C380.51 118.829 389.56 133.079 389.56 133.079C389.56 133.079 382.26 123.469 376.76 120.559C375.637 119.904 374.391 119.489 373.1 119.339V112.689Z" fill="#E0E0E0"/>
<path d="M355.938 119C355.938 119 365.938 139.85 367.718 153.92C369.498 167.99 365.718 215.99 365.718 231.22C365.718 249.58 365.778 279.88 365.778 279.88C365.778 279.88 354.368 279.88 346.528 277.64C340.798 276.01 334.008 273.08 329.898 268.17C329.898 268.17 328.778 230.59 331.138 212.69C333.368 195.69 342.418 174.75 342.418 174.75L330.818 130.53C330.818 130.53 331.358 122.93 338.508 120.8C345.278 118.76 355.938 119 355.938 119Z" fill="#FAFAFA"/>
<path d="M346.529 128.1L334.689 145.43L342.379 174.73C342.379 174.73 335.239 189.8 332.609 204.39C339.739 184.22 346.179 178.17 346.179 178.17L341.999 161.11C341.999 161.11 343.469 155.74 345.519 146.58C347.569 137.42 347.229 132.11 346.529 128.1Z" fill="#EBEBEB"/>
<path d="M352.999 144.44C352.999 143.57 352.919 141.69 352.769 139.31C352.029 127.7 351.689 117.2 355.609 116.31L355.959 117.91C353.089 118.53 354.039 133.52 354.399 139.16C354.559 141.59 354.679 143.5 354.639 144.46L352.999 144.44Z" fill="#ECEFF1"/>
<path d="M355.939 112.689C355.21 112.693 354.495 112.897 353.873 113.277C353.251 113.658 352.745 114.202 352.409 114.849C351.469 116.449 349.489 119.139 349.489 119.139C349.489 119.139 349.419 129.799 350.489 132.569C351.409 134.969 362.709 143.859 362.709 143.859C362.709 143.859 361.609 153.269 361.519 156.559C361.429 159.849 367.229 171.779 367.939 178.169C367.939 178.169 369.139 162.649 368.199 155.439C366.549 142.889 358.719 124.119 355.939 118.979V112.689Z" fill="#EBEBEB"/>
<path d="M350.63 183.269H350.49V182.129C351.848 182.016 353.148 181.532 354.25 180.729C353.074 179.947 352.023 178.993 351.13 177.899C349.28 175.509 345.24 158.459 346.49 154.489C347.49 151.159 350.8 143.809 353.72 143.689H353.79C356.7 143.689 360.52 150.629 361.84 153.829C363.42 157.689 360.84 175.019 359.2 177.549C358.405 178.719 357.438 179.761 356.33 180.639C357.489 181.356 358.827 181.73 360.19 181.719L360.33 182.849C358.555 182.88 356.813 182.374 355.33 181.399C353.97 182.453 352.341 183.101 350.63 183.269ZM353.84 144.819C352.13 144.889 349.06 150.339 347.66 154.819C346.51 158.469 350.4 174.969 352.11 177.189C353.018 178.288 354.095 179.237 355.3 179.999C356.459 179.137 357.472 178.094 358.3 176.909C359.82 174.559 362.3 157.789 360.83 154.249C359.05 149.999 355.56 144.819 353.84 144.819Z" fill="#455A64"/>
<path d="M361.999 182.2C362.013 182.532 361.928 182.86 361.755 183.144C361.582 183.427 361.328 183.653 361.027 183.793C360.726 183.932 360.39 183.98 360.061 183.928C359.733 183.877 359.428 183.73 359.183 183.505C358.939 183.28 358.766 182.988 358.688 182.665C358.61 182.342 358.629 182.003 358.743 181.691C358.857 181.38 359.061 181.108 359.329 180.912C359.597 180.716 359.917 180.604 360.249 180.59C360.694 180.574 361.128 180.734 361.455 181.035C361.783 181.337 361.978 181.755 361.999 182.2Z" fill="#263238"/>
<path d="M352.189 182.62C352.202 182.952 352.117 183.281 351.944 183.564C351.771 183.848 351.518 184.073 351.216 184.213C350.915 184.353 350.579 184.4 350.251 184.349C349.923 184.297 349.617 184.15 349.373 183.925C349.128 183.7 348.956 183.408 348.878 183.085C348.799 182.762 348.818 182.424 348.932 182.112C349.046 181.8 349.25 181.529 349.518 181.333C349.787 181.137 350.107 181.024 350.439 181.01C350.659 181.001 350.88 181.035 351.087 181.111C351.295 181.187 351.485 181.303 351.648 181.452C351.81 181.602 351.942 181.782 352.034 181.982C352.127 182.183 352.18 182.4 352.189 182.62Z" fill="#263238"/>
<path d="M362.16 161.34L361.16 161.27C361.111 161.267 361.062 161.255 361.018 161.233C360.974 161.211 360.935 161.181 360.903 161.143C360.871 161.106 360.847 161.062 360.833 161.015C360.819 160.968 360.814 160.919 360.82 160.87C361.01 157.67 360.91 155.31 360.52 154.37C358.82 150.23 355.32 145.05 353.79 145.11C352.26 145.17 349.2 150.64 347.86 154.91C347.56 155.91 347.65 158.24 348.12 161.41C348.134 161.508 348.11 161.607 348.052 161.688C347.994 161.768 347.907 161.823 347.81 161.84L346.81 161.99C346.76 161.997 346.709 161.994 346.66 161.981C346.611 161.968 346.565 161.946 346.525 161.915C346.485 161.884 346.452 161.846 346.427 161.802C346.402 161.758 346.386 161.71 346.38 161.66C345.85 158.1 345.79 155.66 346.18 154.39C346.9 152.11 350.27 143.54 353.67 143.39C357.07 143.24 361.16 151.5 362.07 153.72C362.57 154.94 362.72 157.38 362.49 160.98C362.486 161.069 362.45 161.154 362.39 161.22C362.33 161.286 362.248 161.328 362.16 161.34Z" fill="#ECEFF1"/>
<path d="M322.739 248.5C324.479 250.13 325.429 252.32 327.219 255.56C329.009 258.8 337.839 259.11 338.539 250C339.069 243.14 336.669 240.82 331.859 235.48C326.809 229.86 324.859 228.94 325.089 223.73C325.219 221.16 329.089 183.96 329.089 183.96L341.819 148.89C341.819 148.89 346.419 132.5 344.109 121.08C344.109 121.08 335.859 120.41 330.029 126.23C323.219 133.03 315.509 166.65 313.809 173.44C311.36 182.044 310.29 190.981 310.639 199.92C311.039 210.83 311.079 233.63 312.529 238.66C313.979 243.69 318.049 244.11 322.739 248.5Z" fill="#B16668"/>
<path d="M344.679 119.57C344.679 119.57 335.909 119.02 330.779 123.22C325.649 127.42 322.459 139.16 318.689 150.89C314.919 162.62 311.559 174.05 310.319 182.27C309.319 189.15 311.319 225.47 311.319 225.47C311.319 225.47 317.159 227.59 325.089 223.73L329.999 184L344.699 144.12C347.409 136.159 347.402 127.525 344.679 119.57Z" fill="#F0F0F0"/>
<path d="M378.849 69.5596C385.529 70.2496 391.109 77.3496 390.739 93.4596C390.419 107.12 385.989 110.46 383.739 111.46C381.489 112.46 377.229 112.59 373.069 111.89V119.34C373.069 119.34 377.869 129.92 375.829 133.7C364.439 129 355.939 119 355.939 119V102.12C355.939 102.12 353.129 105.45 348.529 102.4C343.929 99.3496 343.749 91.7796 346.429 89.0596C349.109 86.3396 354.869 87.2096 355.939 90.9596C355.939 90.9596 359.939 90.8596 367.309 85.6096C372.917 81.7762 377.001 76.096 378.849 69.5596Z" fill="#B16668"/>
<path d="M372.188 88.2199C372.21 88.4649 372.183 88.7117 372.108 88.9459C372.032 89.18 371.911 89.3967 371.751 89.5831C371.59 89.7696 371.394 89.922 371.174 90.0314C370.954 90.1408 370.714 90.2049 370.468 90.2199C370.094 90.253 369.718 90.1737 369.389 89.9921C369.06 89.8105 368.792 89.5349 368.621 89.2005C368.449 88.8661 368.381 88.4881 368.425 88.1148C368.469 87.7415 368.624 87.3899 368.869 87.1049C369.114 86.8199 369.439 86.6145 369.801 86.5148C370.164 86.4152 370.548 86.4259 370.904 86.5456C371.26 86.6653 371.573 86.8886 371.802 87.1868C372.03 87.4851 372.165 87.8448 372.188 88.2199Z" fill="#263238"/>
<path d="M374.109 101L379.529 102.73C379.431 103.092 379.262 103.431 379.03 103.727C378.799 104.022 378.51 104.267 378.181 104.448C377.853 104.63 377.491 104.743 377.118 104.781C376.744 104.819 376.367 104.781 376.009 104.67C375.282 104.418 374.68 103.897 374.326 103.214C373.973 102.531 373.895 101.739 374.109 101Z" fill="#9A4A4D"/>
<path d="M388.299 83.9996L384.619 81.4496C384.774 81.2017 384.978 80.9881 385.218 80.8216C385.458 80.6551 385.729 80.5393 386.016 80.4813C386.302 80.4233 386.597 80.4242 386.883 80.4841C387.169 80.544 387.44 80.6615 387.679 80.8296C388.172 81.1754 388.512 81.6987 388.628 82.2897C388.743 82.8807 388.625 83.4935 388.299 83.9996Z" fill="#263238"/>
<path d="M386.999 87.8703C387.003 88.2272 386.901 88.5772 386.707 88.8768C386.514 89.1765 386.236 89.4125 385.909 89.5555C385.582 89.6986 385.22 89.7423 384.868 89.6813C384.517 89.6204 384.191 89.4574 383.931 89.2126C383.671 88.9678 383.489 88.6521 383.408 88.3047C383.326 87.9573 383.348 87.5936 383.472 87.2587C383.595 86.9238 383.814 86.6326 384.102 86.4214C384.389 86.2101 384.733 86.088 385.089 86.0703C385.333 86.0623 385.576 86.1026 385.804 86.1889C386.032 86.2752 386.241 86.4057 386.419 86.573C386.596 86.7403 386.739 86.941 386.839 87.1637C386.938 87.3863 386.993 87.6265 386.999 87.8703Z" fill="#263238"/>
<path d="M377.77 86.8301L378.06 97.7701L383.82 95.9901L377.77 86.8301Z" fill="#9A4A4D"/>
<path d="M373.1 111.889C368.7 111.319 359.67 107.979 358.26 104.399C358.824 106.209 359.93 107.8 361.43 108.959C364.13 111.279 373.1 113.879 373.1 113.879V111.889Z" fill="#9A4A4D"/>
<path d="M446.549 155.479L403.069 176.169L391.109 227.91L392.079 228.939L433.409 208.149L447.519 156.509L446.549 155.479Z" fill="#ECEFF1"/>
<path opacity="0.35" d="M404.049 177.21L392.079 228.94L391.109 227.91L403.069 176.17L404.049 177.21Z" fill="#1F1F1F"/>
<path opacity="0.25" d="M447.518 156.51L404.048 177.21L392.078 228.94L433.408 208.15L447.518 156.51Z" fill="#1F1F1F"/>
<g opacity="0.2">
<path d="M427 197.63C427.4 198.63 430.73 200.89 435.56 200.49L436.37 197.49L427 197.63Z" fill="#1F1F1F"/>
</g>
<g opacity="0.1">
<path d="M434.418 167.11L434.778 165.38C434.978 164.38 432.428 164.92 429.078 166.5L422.678 169.5C419.328 171.08 416.458 173.14 416.258 174.1L415.898 175.83L434.418 167.11Z" fill="#1F1F1F"/>
</g>
<path d="M437.059 159C437.189 158.4 436.149 158.47 434.749 159.16L432.219 160.4C432.219 160.4 432.969 156.65 427.339 159.1C421.709 161.55 420.489 165.88 420.489 165.88L417.779 167.23C416.279 167.97 414.929 169.07 414.779 169.67L414.459 170.77L436.849 160.12C436.849 160.12 436.939 159.6 437.059 159Z" fill="#37474F"/>
<path d="M434.679 162.589C432.629 163.519 431.769 163.979 431.469 165.459C431.119 167.139 430.979 168.359 430.979 168.359L421.059 173.079C421.059 173.079 421.539 170.939 421.689 170.079C421.839 169.219 421.509 168.839 419.929 169.599L419.309 167.859L435.309 160.399L434.679 162.589Z" fill="#37474F"/>
<path d="M434.999 167.14C434.999 167.14 435.158 166.36 435.358 165.41C435.558 164.46 433.009 164.95 429.659 166.53L423.249 169.53C419.909 171.11 417.039 173.17 416.839 174.13L416.479 175.86L434.999 167.14Z" fill="#37474F"/>
<path d="M442.68 174.21C442.68 174.21 441.14 179.89 440.74 181.32C440.34 182.75 433.22 186.04 429.65 186.49C422.83 187.34 422.06 188.82 423.7 193.66C425.21 198.12 429.65 199.81 435.81 199.08C438.69 198.74 442.68 196.18 444.25 191.71C446.25 186.01 445.17 179.91 445.96 176.58C446.75 173.25 444.42 172.23 442.68 174.21Z" fill="#B16668"/>
<path d="M50.959 115.69L52.989 116.86L103.739 87.5596L101.709 86.3896L50.959 115.69Z" fill="#455A64"/>
<path d="M101.71 86.3902L52.9902 114.52V72.2902L101.71 44.1602V86.3902Z" fill="#ECEFF1"/>
<g opacity="0.8">
<path d="M101.71 86.3902L52.9902 114.52V72.2902L101.71 44.1602V86.3902Z" fill="white"/>
</g>
<path d="M105.77 39.4697L51 71.1097V120.38L105.81 88.7297L105.77 39.4697ZM103.77 87.5597L53 116.86V72.2897L103.74 42.9997L103.77 87.5597Z" fill="#37474F"/>
<path d="M103.739 87.5595L101.709 86.3895V44.1595L103.739 42.9795V87.5595Z" fill="#263238"/>
<path d="M105.77 39.4698L103.74 38.2998L48.9297 69.9398L50.9597 71.1098L105.77 39.4698Z" fill="#455A64"/>
<path d="M48.9297 69.9395L50.9597 71.1095V120.379L48.9297 119.209V69.9395Z" fill="#263238"/>
<path d="M92.1505 79.2896C94.0505 78.1896 95.5805 79.0796 95.5805 81.2896C95.5168 82.4785 95.1729 83.6355 94.5768 84.666C93.9806 85.6966 93.1493 86.5716 92.1505 87.2196C90.2605 88.3096 88.7305 87.4296 88.7305 85.2196C88.7946 84.032 89.1377 82.8762 89.7319 81.846C90.3261 80.8157 91.1546 79.9399 92.1505 79.2896Z" fill="#ECEFF1"/>
<path opacity="0.2" d="M64.4602 70.3598L90.2602 55.4598C90.9802 55.0398 91.5602 55.3798 91.5602 56.1998V56.2798C91.5365 56.7308 91.4064 57.1699 91.1804 57.561C90.9545 57.952 90.6391 58.284 90.2602 58.5298L64.4602 73.4498C63.7502 73.8698 63.1602 73.5298 63.1602 72.6998V72.6098C63.1877 72.1597 63.3195 71.7221 63.5451 71.3316C63.7707 70.9411 64.0839 70.6084 64.4602 70.3598Z" fill="#1F1F1F"/>
<g opacity="0.2">
<path d="M60.3797 82.0998L94.3797 62.4998C95.0997 62.0798 95.6797 62.2698 95.6797 62.9198C95.6279 63.3191 95.4833 63.7007 95.2576 64.0341C95.0318 64.3675 94.7312 64.6434 94.3797 64.8398L60.3797 84.4598C59.6697 84.8798 59.0897 84.6898 59.0997 84.0298C59.1517 83.6317 59.294 83.2509 59.5159 82.9163C59.7377 82.5818 60.0332 82.3025 60.3797 82.0998Z" fill="#1F1F1F"/>
<path d="M60.3797 86.7894L94.3797 67.1794C95.0997 66.7694 95.6797 66.9594 95.6797 67.5994C95.6271 67.9998 95.4823 68.3824 95.2567 68.7173C95.0311 69.0522 94.7309 69.3302 94.3797 69.5294L60.3797 89.1494C59.6697 89.5594 59.0897 89.3694 59.0997 88.7194C59.1502 88.3209 59.2919 87.9394 59.514 87.6047C59.736 87.2699 60.0323 86.9909 60.3797 86.7894Z" fill="#1F1F1F"/>
<path d="M60.3797 91.4696L94.3797 71.8596C95.0997 71.4496 95.6797 71.6396 95.6797 72.2896C95.6279 72.6889 95.4833 73.0705 95.2576 73.4039C95.0318 73.7373 94.7312 74.0132 94.3797 74.2096L60.3797 93.8296C59.6697 94.2496 59.0897 94.0496 59.0997 93.3996C59.1517 93.0016 59.294 92.6207 59.5159 92.2862C59.7377 91.9516 60.0332 91.6723 60.3797 91.4696Z" fill="#1F1F1F"/>
</g>
<path opacity="0.3" d="M86.0595 89.31C85.7967 89.4489 85.5064 89.5275 85.2095 89.54C84.4795 89.54 84.5495 88.8 84.5695 88.29C84.5695 88.06 84.2595 87.7 84.0995 88.01C83.6595 88.8 83.0995 89.54 82.6195 90.31C82.3295 90.78 81.7795 91.85 81.0795 91.7C80.7995 91.64 80.6995 91.33 80.6995 90.94C81.0526 90.2922 81.209 89.5554 81.1495 88.82C81.1495 88.6 80.7495 88.33 80.6395 88.63C80.3862 89.2687 80.2377 89.944 80.1995 90.63C79.8748 91.2006 79.5071 91.7455 79.0995 92.26C78.8595 92.57 78.6595 92.92 78.3995 93.26C78.3295 93.33 78.2095 93.51 78.1095 93.52C78.0095 93.53 77.8995 93.42 77.8695 93.26C77.8571 93.0249 77.8946 92.7897 77.9795 92.57C77.9795 92.57 77.9795 92.57 77.9795 92.51C77.9795 92.28 77.6795 91.94 77.5595 92.23C77.1111 93.4544 76.4322 94.5814 75.5595 95.55L75.4295 95.66C75.4295 95.52 75.4295 95.39 75.4295 95.25C75.4169 94.9377 75.3631 94.6283 75.2695 94.33C75.2095 94.18 74.9495 93.95 74.8095 94.15C74.1886 95.2798 73.4294 96.3279 72.5495 97.27C72.4013 97.3917 72.2442 97.502 72.0795 97.6C71.9195 97.52 72.1595 96.69 72.1995 96.6C72.2895 96.23 72.4095 95.87 72.5295 95.51C72.654 95.2215 72.7446 94.9195 72.7995 94.61C72.7995 94.33 72.3695 93.9 72.2795 94.28C72.2795 94.43 72.1095 94.8 71.9695 95.28C71.3891 96.3536 70.7307 97.383 69.9995 98.36C69.3431 99.4181 68.432 100.295 67.3495 100.91C67.0495 101.07 66.4795 101.31 66.1495 101.07C65.8195 100.83 65.8495 100.42 65.8395 100.07C65.8263 99.275 65.9343 98.4826 66.1595 97.72C67.2249 97.1562 68.2131 96.4571 69.0995 95.64C69.9694 94.9444 70.7223 94.1139 71.3295 93.18C71.6295 92.63 71.8095 91.74 71.0795 91.43C70.5695 91.21 69.9195 91.57 69.4895 91.81C68.8991 92.1598 68.3634 92.5944 67.8995 93.1C66.9591 94.1684 66.2751 95.4373 65.8995 96.81C65.8395 97.02 65.7495 97.3 65.6695 97.61C64.5175 98.2005 63.2113 98.4205 61.9295 98.24C61.8595 98.24 61.8295 98.39 61.9295 98.4C63.1564 98.6632 64.4347 98.541 65.5895 98.05C65.2595 99.47 65.0795 101.35 66.3995 101.72C67.7195 102.09 69.3195 100.43 70.0295 99.47C70.5733 98.7528 71.0488 97.9861 71.4495 97.18C71.4861 97.1211 71.5262 97.0643 71.5695 97.01C71.5695 97.67 71.6995 98.15 72.3495 98.01C72.9995 97.87 73.5895 97.01 73.9495 96.48C74.3095 95.95 74.5995 95.48 74.9495 95.01C75.0095 95.61 75.1095 96.28 75.6795 96.17C76.2495 96.06 76.6795 95.07 76.9795 94.67C77.2795 94.27 77.4295 93.97 77.6195 93.61C77.6594 93.6757 77.7028 93.7391 77.7495 93.8C78.2195 94.3 78.7495 93.8 79.0895 93.36C79.5195 92.8 79.9995 92.2 80.4095 91.56C80.507 91.8349 80.7079 92.061 80.9695 92.19C81.6995 92.53 82.3795 91.93 82.7995 91.4C83.3098 90.7035 83.7645 89.9679 84.1595 89.2C84.1893 89.3452 84.2492 89.4825 84.3353 89.603C84.4214 89.7236 84.5318 89.8248 84.6595 89.9C84.9284 90.0358 85.2288 90.0972 85.5294 90.0778C85.8301 90.0585 86.1201 89.9591 86.3695 89.79C86.5095 89.68 86.2995 89.19 86.0595 89.31ZM70.1695 92.15C70.4995 91.98 71.1695 91.69 71.2395 92.26C71.1937 92.633 71.0329 92.9825 70.7795 93.26C70.2011 94.0391 69.5294 94.7443 68.7795 95.36C68.0156 96.0642 67.1888 96.6968 66.3095 97.25C66.5675 96.1802 67.0434 95.175 67.7076 94.2975C68.3718 93.42 69.2099 92.6889 70.1695 92.15Z" fill="#1F1F1F"/>
<path d="M130.959 115.69L132.989 116.86L183.739 87.5596L181.709 86.3896L130.959 115.69Z" fill="#455A64"/>
<path d="M181.71 86.3902L132.99 114.52V72.2902L181.71 44.1602V86.3902Z" fill="#ECEFF1"/>
<g opacity="0.8">
<path d="M181.71 86.3902L132.99 114.52V72.2902L181.71 44.1602V86.3902Z" fill="white"/>
</g>
<path d="M185.77 39.4697L131 71.1097V120.38L185.81 88.7297L185.77 39.4697ZM183.77 87.5597L133 116.86V72.2897L183.74 42.9997L183.77 87.5597Z" fill="#37474F"/>
<path d="M183.739 87.5595L181.709 86.3895V44.1595L183.739 42.9795V87.5595Z" fill="#263238"/>
<path d="M185.77 39.4698L183.74 38.2998L128.93 69.9398L130.96 71.1098L185.77 39.4698Z" fill="#455A64"/>
<path d="M128.93 69.9395L130.96 71.1095V120.379L128.93 119.209V69.9395Z" fill="#263238"/>
<path d="M172.16 79.2896C174.05 78.1896 175.58 79.0796 175.58 81.2896C175.516 82.4772 175.173 83.633 174.579 84.6633C173.985 85.6936 173.156 86.5693 172.16 87.2196C170.26 88.3096 168.73 87.4296 168.73 85.2196C168.794 84.0308 169.138 82.8738 169.734 81.8432C170.33 80.8126 171.162 79.9376 172.16 79.2896Z" fill="#ECEFF1"/>
<path opacity="0.2" d="M144.46 70.3598L170.27 55.4598C170.98 55.0398 171.56 55.3798 171.56 56.1998V56.2798C171.537 56.7298 171.408 57.1679 171.184 57.5588C170.959 57.9497 170.646 58.2823 170.27 58.5298L144.46 73.4498C143.75 73.8698 143.17 73.5298 143.17 72.6998V72.6098C143.196 72.1604 143.325 71.7231 143.549 71.3325C143.773 70.942 144.085 70.609 144.46 70.3598Z" fill="#1F1F1F"/>
<g opacity="0.2">
<path d="M140.38 82.0998L174.38 62.4998C175.1 62.0798 175.68 62.2698 175.68 62.9198C175.628 63.3191 175.483 63.7007 175.258 64.0341C175.032 64.3675 174.731 64.6434 174.38 64.8398L140.38 84.4598C139.67 84.8798 139.09 84.6898 139.1 84.0298C139.152 83.6317 139.294 83.2509 139.516 82.9163C139.738 82.5818 140.033 82.3025 140.38 82.0998Z" fill="#1F1F1F"/>
<path d="M140.38 86.7894L174.38 67.1794C175.1 66.7694 175.68 66.9594 175.68 67.5994C175.627 67.9998 175.482 68.3824 175.257 68.7173C175.031 69.0522 174.731 69.3302 174.38 69.5294L140.38 89.1494C139.67 89.5594 139.09 89.3694 139.1 88.7194C139.15 88.3209 139.292 87.9394 139.514 87.6047C139.736 87.2699 140.032 86.9909 140.38 86.7894Z" fill="#1F1F1F"/>
<path d="M140.38 91.4696L174.38 71.8596C175.1 71.4496 175.68 71.6396 175.68 72.2896C175.628 72.6889 175.483 73.0705 175.258 73.4039C175.032 73.7373 174.731 74.0132 174.38 74.2096L140.38 93.8296C139.67 94.2496 139.09 94.0496 139.1 93.3996C139.152 93.0016 139.294 92.6207 139.516 92.2862C139.738 91.9516 140.033 91.6723 140.38 91.4696Z" fill="#1F1F1F"/>
</g>
<path opacity="0.3" d="M166.06 89.31C165.798 89.4512 165.507 89.5299 165.21 89.54C164.49 89.54 164.55 88.8 164.57 88.29C164.57 88.06 164.26 87.7 164.1 88.01C163.66 88.8 163.1 89.54 162.62 90.31C162.34 90.78 161.78 91.85 161.09 91.7C160.8 91.64 160.7 91.33 160.7 90.94C161.053 90.2922 161.21 89.5554 161.15 88.82C161.15 88.6 160.76 88.33 160.64 88.63C160.387 89.2687 160.238 89.944 160.2 90.63C159.876 91.2006 159.508 91.7455 159.1 92.26C158.87 92.57 158.66 92.92 158.4 93.26C158.34 93.33 158.21 93.51 158.11 93.52C158.01 93.53 157.9 93.42 157.87 93.26C157.858 93.0249 157.895 92.7897 157.98 92.57C157.985 92.5503 157.985 92.5298 157.98 92.51C157.98 92.28 157.68 91.94 157.56 92.23C157.112 93.4544 156.433 94.5814 155.56 95.55L155.43 95.66C155.43 95.52 155.43 95.39 155.43 95.25C155.418 94.9377 155.364 94.6283 155.27 94.33C155.21 94.18 154.95 93.95 154.81 94.15C154.193 95.282 153.433 96.3304 152.55 97.27C152.404 97.394 152.246 97.5044 152.08 97.6C151.93 97.52 152.17 96.69 152.2 96.6C152.29 96.23 152.41 95.87 152.53 95.51C152.655 95.2215 152.745 94.9195 152.8 94.61C152.8 94.33 152.37 93.9 152.28 94.28C152.28 94.43 152.11 94.8 151.97 95.28C151.393 96.3556 150.735 97.3853 150 98.36C149.344 99.4181 148.433 100.295 147.35 100.91C147.05 101.07 146.48 101.31 146.15 101.07C145.82 100.83 145.86 100.42 145.84 100.07C145.837 99.2756 145.945 98.4847 146.16 97.72C147.226 97.1562 148.214 96.4571 149.1 95.64C149.973 94.9471 150.726 94.1161 151.33 93.18C151.63 92.63 151.81 91.74 151.08 91.43C150.57 91.21 149.92 91.57 149.49 91.81C148.892 92.1451 148.346 92.5663 147.87 93.06C146.93 94.1284 146.246 95.3973 145.87 96.77C145.81 96.98 145.72 97.26 145.64 97.57C144.488 98.1605 143.182 98.3805 141.9 98.2C141.83 98.2 141.8 98.35 141.9 98.36C143.127 98.6232 144.405 98.501 145.56 98.01C145.23 99.43 145.05 101.31 146.37 101.68C147.69 102.05 149.29 100.39 150 99.43C150.544 98.7128 151.019 97.9461 151.42 97.14C151.457 97.0811 151.497 97.0243 151.54 96.97C151.54 97.63 151.67 98.11 152.32 97.97C152.97 97.83 153.56 96.97 153.93 96.44C154.3 95.91 154.57 95.44 154.93 94.97C154.99 95.57 155.1 96.24 155.66 96.13C156.22 96.02 156.66 95.03 156.96 94.63C157.26 94.23 157.41 93.93 157.6 93.57C157.64 93.6357 157.683 93.6991 157.73 93.76C158.2 94.26 158.73 93.76 159.07 93.32C159.5 92.76 159.98 92.16 160.39 91.52C160.488 91.7949 160.689 92.021 160.95 92.15C161.68 92.49 162.36 91.89 162.78 91.36C163.29 90.6635 163.745 89.9279 164.14 89.16C164.17 89.3052 164.23 89.4425 164.316 89.563C164.402 89.6836 164.513 89.7848 164.64 89.86C164.909 89.9958 165.21 90.0572 165.51 90.0378C165.811 90.0185 166.101 89.9191 166.35 89.75C166.52 89.68 166.3 89.19 166.06 89.31ZM150.17 92.15C150.51 91.98 151.17 91.69 151.24 92.26C151.193 92.6308 151.037 92.9792 150.79 93.26C150.209 94.0363 149.537 94.7412 148.79 95.36C148.026 96.0642 147.2 96.6968 146.32 97.25C146.577 96.181 147.051 95.1764 147.714 94.2989C148.376 93.4215 149.212 92.6899 150.17 92.15Z" fill="#1F1F1F"/>
</svg>
