<svg width="85" height="49" viewBox="0 0 85 49" fill="none" xmlns="http://www.w3.org/2000/svg">
<path d="M2 19.2459H20.6083L28.9416 6.9201L43.4018 24.6836L56.5124 4.00007L64.4477 15.8456H82.3885" stroke="white" stroke-width="3.78357" stroke-linecap="round"/>
<path d="M22.3811 31.9411L17.6672 43.7014H15.1973L10.4835 31.9411H12.679C12.9157 31.9411 13.1068 31.9976 13.2521 32.1106C13.3974 32.2182 13.5077 32.3581 13.583 32.5303L15.8592 38.8262C15.9668 39.1006 16.0717 39.4019 16.174 39.7302C16.2762 40.053 16.3731 40.3921 16.4646 40.7472C16.5399 40.3921 16.6233 40.053 16.7148 39.7302C16.8116 39.4019 16.9139 39.1006 17.0215 38.8262L19.2816 32.5303C19.3408 32.3796 19.4457 32.2451 19.5964 32.1267C19.7524 32.0029 19.9434 31.9411 20.1694 31.9411H22.3811ZM29.7737 35.3311V43.7014H27.2715V35.3311H29.7737ZM30.0319 33.0388C30.0319 33.2379 29.9916 33.4262 29.9109 33.6038C29.8302 33.776 29.7198 33.9294 29.5799 34.0639C29.44 34.193 29.2759 34.298 29.0876 34.3787C28.9046 34.454 28.7082 34.4917 28.4983 34.4917C28.2939 34.4917 28.1028 34.454 27.9253 34.3787C27.7477 34.298 27.5889 34.193 27.449 34.0639C27.3145 33.9294 27.2069 33.776 27.1262 33.6038C27.0508 33.4262 27.0132 33.2379 27.0132 33.0388C27.0132 32.8343 27.0508 32.6433 27.1262 32.4657C27.2069 32.2881 27.3145 32.1321 27.449 31.9976C27.5889 31.863 27.7477 31.7581 27.9253 31.6828C28.1028 31.6074 28.2939 31.5698 28.4983 31.5698C28.7082 31.5698 28.9046 31.6074 29.0876 31.6828C29.2759 31.7581 29.44 31.863 29.5799 31.9976C29.7198 32.1321 29.8302 32.2881 29.9109 32.4657C29.9916 32.6433 30.0319 32.8343 30.0319 33.0388ZM38.7106 43.8306C38.3124 43.8306 37.9599 43.7741 37.6532 43.6611C37.3519 43.5427 37.0963 43.3786 36.8864 43.1687C36.6819 42.9534 36.5259 42.6952 36.4182 42.3938C36.3106 42.0925 36.2568 41.7562 36.2568 41.3849V37.0585H35.5465C35.4174 37.0585 35.307 37.0181 35.2156 36.9374C35.1241 36.8513 35.0784 36.7275 35.0784 36.5661V35.5894L36.4102 35.3311L36.9025 33.289C36.9671 33.0307 37.1501 32.9016 37.4514 32.9016H38.759V35.3473H40.8334V37.0585H38.759V41.2154C38.759 41.4091 38.8047 41.5705 38.8962 41.6997C38.9931 41.8234 39.1303 41.8853 39.3079 41.8853C39.3994 41.8853 39.4747 41.8772 39.5339 41.8611C39.5985 41.8396 39.6523 41.818 39.6953 41.7965C39.7437 41.7696 39.7868 41.7481 39.8245 41.7319C39.8675 41.7104 39.9159 41.6997 39.9698 41.6997C40.0451 41.6997 40.1043 41.7185 40.1473 41.7562C40.1958 41.7884 40.2442 41.8423 40.2926 41.9176L41.0513 43.1041C40.7285 43.3463 40.3653 43.5292 39.9617 43.653C39.5581 43.7714 39.1411 43.8306 38.7106 43.8306ZM50.4272 40.2952C49.9267 40.3167 49.5151 40.3598 49.1922 40.4243C48.8693 40.4889 48.6137 40.5696 48.4254 40.6665C48.2371 40.7633 48.1052 40.8737 48.0299 40.9974C47.9599 41.1212 47.925 41.2557 47.925 41.401C47.925 41.6862 48.003 41.888 48.159 42.0064C48.3151 42.1194 48.5438 42.1759 48.8451 42.1759C49.168 42.1759 49.4505 42.1194 49.6926 42.0064C49.9348 41.8934 50.1796 41.7104 50.4272 41.4575V40.2952ZM45.9232 36.4935C46.429 36.0468 46.9887 35.7159 47.6021 35.5007C48.2209 35.28 48.8828 35.1697 49.5877 35.1697C50.0935 35.1697 50.5482 35.2531 50.9518 35.4199C51.3608 35.5814 51.7052 35.8101 51.985 36.106C52.2702 36.3966 52.4881 36.7437 52.6388 37.1473C52.7895 37.5508 52.8648 37.9921 52.8648 38.471V43.7014H51.7186C51.4819 43.7014 51.3016 43.6691 51.1778 43.6046C51.0594 43.54 50.9599 43.4055 50.8792 43.201L50.7016 42.7409C50.4917 42.9185 50.2899 43.0745 50.0962 43.209C49.9025 43.3436 49.7007 43.4593 49.4909 43.5561C49.2864 43.6476 49.0658 43.7149 48.829 43.7579C48.5976 43.8063 48.3393 43.8306 48.0541 43.8306C47.6721 43.8306 47.325 43.7821 47.0129 43.6853C46.7008 43.583 46.4344 43.4351 46.2138 43.2413C45.9985 43.0476 45.8317 42.8082 45.7133 42.523C45.595 42.2324 45.5358 41.8988 45.5358 41.5221C45.5358 41.2207 45.6111 40.9167 45.7618 40.61C45.9124 40.2979 46.1734 40.0154 46.5447 39.7625C46.916 39.5042 47.4165 39.2889 48.046 39.1167C48.6756 38.9445 49.4693 38.8477 50.4272 38.8262V38.471C50.4272 37.9813 50.3249 37.6289 50.1204 37.4136C49.9213 37.193 49.6361 37.0827 49.2649 37.0827C48.9689 37.0827 48.7267 37.115 48.5384 37.1795C48.3501 37.2441 48.1806 37.3168 48.0299 37.3975C47.8846 37.4782 47.742 37.5508 47.6021 37.6154C47.4622 37.68 47.2954 37.7123 47.1017 37.7123C46.9295 37.7123 46.7842 37.6692 46.6658 37.5831C46.5474 37.497 46.4505 37.3948 46.3752 37.2764L45.9232 36.4935ZM61.1637 31.6182V43.7014H58.6615V31.6182H61.1637ZM72.3714 37.1634C72.3068 37.2656 72.2368 37.3383 72.1615 37.3813C72.0916 37.4244 72.0001 37.4459 71.8871 37.4459C71.7687 37.4459 71.6503 37.4217 71.5319 37.3733C71.4135 37.3195 71.2844 37.263 71.1445 37.2038C71.01 37.1446 70.8566 37.0908 70.6844 37.0423C70.5122 36.9885 70.3158 36.9616 70.0952 36.9616C69.7777 36.9616 69.5329 37.0235 69.3607 37.1473C69.1938 37.2656 69.1104 37.4325 69.1104 37.6477C69.1104 37.8038 69.1643 37.9329 69.2719 38.0351C69.3849 38.1374 69.5329 38.2289 69.7158 38.3096C69.8988 38.3849 70.1059 38.4576 70.3373 38.5275C70.5687 38.5975 70.8055 38.6755 71.0476 38.7616C71.2898 38.8477 71.5265 38.9499 71.7579 39.0683C71.9893 39.1813 72.1965 39.3239 72.3794 39.4961C72.5624 39.6629 72.7077 39.8674 72.8153 40.1095C72.9283 40.3517 72.9848 40.6423 72.9848 40.9813C72.9848 41.3956 72.9095 41.7777 72.7588 42.1275C72.6081 42.4772 72.3821 42.7786 72.0808 43.0315C71.7848 43.2844 71.4162 43.4808 70.975 43.6207C70.5391 43.7606 70.036 43.8306 69.4656 43.8306C69.1804 43.8306 68.8952 43.8037 68.61 43.7498C68.3248 43.696 68.0477 43.6234 67.7786 43.5319C67.515 43.4404 67.2701 43.3328 67.0441 43.209C66.8181 43.0799 66.6244 42.9427 66.463 42.7974L67.0441 41.8772C67.1087 41.7696 67.1894 41.6862 67.2863 41.627C67.3885 41.5624 67.5176 41.5302 67.6737 41.5302C67.819 41.5302 67.9481 41.5624 68.0611 41.627C68.1795 41.6916 68.306 41.7615 68.4405 41.8369C68.575 41.9122 68.7311 41.9822 68.9087 42.0467C69.0916 42.1113 69.3203 42.1436 69.5947 42.1436C69.7885 42.1436 69.9526 42.1248 70.0871 42.0871C70.2216 42.044 70.3293 41.9875 70.41 41.9176C70.4907 41.8476 70.5499 41.7696 70.5875 41.6835C70.6252 41.5974 70.644 41.5086 70.644 41.4171C70.644 41.2503 70.5875 41.1131 70.4745 41.0055C70.3615 40.8979 70.2136 40.8064 70.0306 40.7311C69.8476 40.6503 69.6378 40.5777 69.401 40.5131C69.1696 40.4432 68.9329 40.3651 68.6907 40.279C68.4486 40.193 68.2091 40.0907 67.9723 39.9723C67.741 39.8486 67.5338 39.6952 67.3508 39.5122C67.1679 39.3239 67.0199 39.0952 66.9069 38.8262C66.7939 38.5571 66.7374 38.2315 66.7374 37.8495C66.7374 37.4943 66.8046 37.158 66.9392 36.8405C67.0791 36.5177 67.2863 36.2352 67.5607 35.993C67.8351 35.7509 68.1795 35.5598 68.5939 35.4199C69.0082 35.2746 69.4925 35.202 70.0467 35.202C70.3481 35.202 70.6387 35.2289 70.9185 35.2827C71.2037 35.3365 71.47 35.4119 71.7176 35.5087C71.9651 35.6056 72.1911 35.7213 72.3956 35.8558C72.6001 35.9849 72.7803 36.1275 72.9364 36.2836L72.3714 37.1634Z" fill="white"/>
</svg>
