<svg width="102" height="58" viewBox="0 0 102 58" fill="none" xmlns="http://www.w3.org/2000/svg">
<path d="M3 23.0942H25.222L35.1736 8.46567L52.4421 29.5479L68.0987 5.0001L77.5751 19.0587H99" stroke="#1565C0" stroke-width="4.50437" stroke-linecap="round"/>
<path d="M27.4143 37.9494L21.8025 51.9502H18.862L13.2502 37.9494H15.8639C16.1458 37.9494 16.3732 38.0167 16.5462 38.1512C16.7191 38.2793 16.8505 38.4459 16.9401 38.6509L19.65 46.1462C19.7781 46.4729 19.903 46.8316 20.0247 47.2224C20.1464 47.6068 20.2618 48.0104 20.3707 48.4332C20.4604 48.0104 20.5596 47.6068 20.6686 47.2224C20.7839 46.8316 20.9056 46.4729 21.0337 46.1462L23.7243 38.6509C23.7948 38.4715 23.9197 38.3114 24.0991 38.1704C24.2849 38.0231 24.5123 37.9494 24.7813 37.9494H27.4143ZM36.2152 41.9853V51.9502H33.2363V41.9853H36.2152ZM36.5227 39.2563C36.5227 39.4933 36.4747 39.7175 36.3786 39.9289C36.2825 40.1339 36.1512 40.3165 35.9846 40.4767C35.818 40.6304 35.6227 40.7553 35.3984 40.8514C35.1806 40.9411 34.9468 40.986 34.697 40.986C34.4535 40.986 34.2261 40.9411 34.0147 40.8514C33.8033 40.7553 33.6143 40.6304 33.4478 40.4767C33.2876 40.3165 33.1595 40.1339 33.0634 39.9289C32.9737 39.7175 32.9288 39.4933 32.9288 39.2563C32.9288 39.0128 32.9737 38.7854 33.0634 38.574C33.1595 38.3626 33.2876 38.1768 33.4478 38.0167C33.6143 37.8565 33.8033 37.7316 34.0147 37.6419C34.2261 37.5522 34.4535 37.5074 34.697 37.5074C34.9468 37.5074 35.1806 37.5522 35.3984 37.6419C35.6227 37.7316 35.818 37.8565 35.9846 38.0167C36.1512 38.1768 36.2825 38.3626 36.3786 38.574C36.4747 38.7854 36.5227 39.0128 36.5227 39.2563ZM46.8547 52.1039C46.3806 52.1039 45.961 52.0367 45.5959 51.9021C45.2371 51.7612 44.9328 51.5658 44.683 51.316C44.4396 51.0597 44.2538 50.7522 44.1257 50.3935C43.9975 50.0347 43.9335 49.6343 43.9335 49.1923V44.0417H43.0879C42.9341 44.0417 42.8028 43.9937 42.6939 43.8976C42.585 43.7951 42.5305 43.6477 42.5305 43.4556V42.2928L44.116 41.9853L44.7022 39.5542C44.7791 39.2467 44.9969 39.0929 45.3557 39.0929H46.9124V42.0045H49.382V44.0417H46.9124V48.9905C46.9124 49.2211 46.9668 49.4133 47.0757 49.5671C47.191 49.7144 47.3544 49.7881 47.5658 49.7881C47.6747 49.7881 47.7644 49.7785 47.8349 49.7593C47.9117 49.7336 47.9758 49.708 48.027 49.6824C48.0847 49.6504 48.1359 49.6247 48.1808 49.6055C48.232 49.5799 48.2897 49.5671 48.3538 49.5671C48.4434 49.5671 48.5139 49.5895 48.5652 49.6343C48.6228 49.6728 48.6805 49.7368 48.7381 49.8265L49.6414 51.2391C49.257 51.5274 48.8246 51.7452 48.3442 51.8925C47.8637 52.0335 47.3672 52.1039 46.8547 52.1039ZM60.8034 47.8951C60.2076 47.9207 59.7175 47.9719 59.3332 48.0488C58.9488 48.1257 58.6445 48.2218 58.4203 48.3371C58.1961 48.4524 58.0391 48.5837 57.9494 48.7311C57.8661 48.8784 57.8245 49.0386 57.8245 49.2115C57.8245 49.5511 57.9174 49.7913 58.1032 49.9322C58.2889 50.0668 58.5612 50.134 58.92 50.134C59.3043 50.134 59.6407 50.0668 59.9289 49.9322C60.2172 49.7977 60.5087 49.5799 60.8034 49.2788V47.8951ZM55.4414 43.3691C56.0436 42.8374 56.7098 42.4434 57.4401 42.1871C58.1768 41.9245 58.9648 41.7931 59.804 41.7931C60.4062 41.7931 60.9475 41.8924 61.428 42.091C61.9149 42.2832 62.3249 42.5555 62.658 42.9078C62.9975 43.2538 63.257 43.667 63.4363 44.1474C63.6157 44.6279 63.7054 45.1532 63.7054 45.7234V51.9502H62.3409C62.059 51.9502 61.8444 51.9118 61.6971 51.8349C61.5561 51.758 61.4376 51.5979 61.3415 51.3544L61.1301 50.8067C60.8803 51.0181 60.64 51.2039 60.4094 51.364C60.1788 51.5242 59.9385 51.6619 59.6887 51.7772C59.4453 51.8861 59.1826 51.9662 58.9007 52.0175C58.6253 52.0751 58.3178 52.1039 57.9782 52.1039C57.5234 52.1039 57.1102 52.0463 56.7386 51.931C56.3671 51.8093 56.05 51.6331 55.7873 51.4025C55.5311 51.1718 55.3325 50.8868 55.1915 50.5472C55.0506 50.2013 54.9801 49.8041 54.9801 49.3557C54.9801 48.9969 55.0698 48.635 55.2492 48.2698C55.4286 47.8983 55.7393 47.5619 56.1813 47.2608C56.6233 46.9533 57.2191 46.6971 57.9686 46.4921C58.7182 46.2871 59.6631 46.1718 60.8034 46.1462V45.7234C60.8034 45.1404 60.6817 44.7208 60.4382 44.4645C60.2012 44.2019 59.8617 44.0706 59.4196 44.0706C59.0673 44.0706 58.779 44.109 58.5548 44.1859C58.3306 44.2627 58.1288 44.3492 57.9494 44.4453C57.7764 44.5414 57.6067 44.6279 57.4401 44.7048C57.2736 44.7816 57.075 44.8201 56.8443 44.8201C56.6393 44.8201 56.4664 44.7688 56.3254 44.6663C56.1845 44.5638 56.0692 44.4421 55.9795 44.3012L55.4414 43.3691ZM73.5853 37.565V51.9502H70.6064V37.565H73.5853ZM86.9281 44.1666C86.8513 44.2884 86.768 44.3748 86.6783 44.4261C86.595 44.4773 86.4861 44.503 86.3516 44.503C86.2106 44.503 86.0697 44.4741 85.9288 44.4165C85.7878 44.3524 85.6341 44.2852 85.4675 44.2147C85.3074 44.1442 85.1248 44.0802 84.9198 44.0225C84.7148 43.9584 84.481 43.9264 84.2183 43.9264C83.8403 43.9264 83.5489 44.0001 83.3439 44.1474C83.1453 44.2884 83.046 44.487 83.046 44.7432C83.046 44.929 83.11 45.0827 83.2382 45.2045C83.3727 45.3262 83.5489 45.4351 83.7667 45.5312C83.9845 45.6209 84.2311 45.7073 84.5066 45.7906C84.782 45.8739 85.0639 45.9668 85.3522 46.0693C85.6405 46.1718 85.9224 46.2935 86.1978 46.4344C86.4733 46.569 86.7199 46.7387 86.9377 46.9437C87.1556 47.1423 87.3285 47.3858 87.4566 47.674C87.5912 47.9623 87.6584 48.3083 87.6584 48.7119C87.6584 49.2051 87.5688 49.66 87.3894 50.0764C87.21 50.4928 86.9409 50.8515 86.5822 51.1526C86.2299 51.4537 85.791 51.6875 85.2657 51.8541C84.7468 52.0207 84.1478 52.1039 83.4688 52.1039C83.1292 52.1039 82.7897 52.0719 82.4502 52.0079C82.1107 51.9438 81.7807 51.8573 81.4604 51.7484C81.1465 51.6395 80.855 51.5114 80.586 51.364C80.3169 51.2103 80.0863 51.0469 79.8941 50.874L80.586 49.7785C80.6629 49.6504 80.7589 49.5511 80.8743 49.4806C80.996 49.4037 81.1497 49.3653 81.3355 49.3653C81.5085 49.3653 81.6622 49.4037 81.7968 49.4806C81.9377 49.5575 82.0882 49.6408 82.2484 49.7304C82.4085 49.8201 82.5943 49.9034 82.8057 49.9803C83.0235 50.0572 83.2958 50.0956 83.6225 50.0956C83.8531 50.0956 84.0485 50.0732 84.2087 50.0283C84.3688 49.9771 84.497 49.9098 84.5931 49.8265C84.6892 49.7433 84.7596 49.6504 84.8045 49.5479C84.8493 49.4454 84.8717 49.3397 84.8717 49.2308C84.8717 49.0322 84.8045 48.8688 84.6699 48.7407C84.5354 48.6126 84.3592 48.5037 84.1414 48.414C83.9236 48.3179 83.6738 48.2314 83.3919 48.1545C83.1164 48.0712 82.8346 47.9783 82.5463 47.8758C82.258 47.7733 81.9729 47.6516 81.6911 47.5107C81.4156 47.3633 81.1689 47.1808 80.9511 46.963C80.7333 46.7387 80.5572 46.4665 80.4226 46.1462C80.2881 45.8259 80.2208 45.4383 80.2208 44.9834C80.2208 44.5606 80.3009 44.1602 80.4611 43.7823C80.6276 43.3979 80.8743 43.0616 81.201 42.7733C81.5277 42.485 81.9377 42.2576 82.431 42.091C82.9242 41.9181 83.5008 41.8316 84.1606 41.8316C84.5194 41.8316 84.8653 41.8636 85.1985 41.9277C85.538 41.9917 85.8551 42.0814 86.1498 42.1967C86.4445 42.312 86.7135 42.4498 86.957 42.6099C87.2004 42.7637 87.415 42.9334 87.6008 43.1192L86.9281 44.1666Z" fill="#1565C0"/>
</svg>
